<?xml version="1.0" encoding="utf-8"?>
<!-- Generator: Adobe Illustrator 23.0.0, SVG Export Plug-In . SVG Version: 6.00 Build 0)  -->
<svg version="1.1" id="Capa_1" xmlns="http://www.w3.org/2000/svg" xmlns:xlink="http://www.w3.org/1999/xlink" x="0px" y="0px"
	 viewBox="0 0 257 248" style="enable-background:new 0 0 257 248;" xml:space="preserve">
<style type="text/css">
	.st0{fill-rule:evenodd;clip-rule:evenodd;fill:url(#SVGID_1_);}
	.st1{fill-rule:evenodd;clip-rule:evenodd;fill:url(#SVGID_2_);}
	.st2{fill-rule:evenodd;clip-rule:evenodd;fill:url(#SVGID_3_);}
	.st3{fill-rule:evenodd;clip-rule:evenodd;fill:url(#SVGID_4_);}
	.st4{fill-rule:evenodd;clip-rule:evenodd;fill:url(#SVGID_5_);}
	.st5{fill:#FFFFFF;}
	.st6{fill-rule:evenodd;clip-rule:evenodd;fill:#FFFFFF;}
	.st7{clip-path:url(#SVGID_7_);fill-rule:evenodd;clip-rule:evenodd;fill:url(#SVGID_8_);}
	.st8{clip-path:url(#SVGID_10_);}
	.st9{fill-rule:evenodd;clip-rule:evenodd;fill:url(#SVGID_11_);}
	.st10{fill-rule:evenodd;clip-rule:evenodd;fill:url(#SVGID_12_);}
	.st11{clip-path:url(#SVGID_14_);}
	.st12{fill-rule:evenodd;clip-rule:evenodd;fill:url(#SVGID_15_);}
	.st13{clip-path:url(#SVGID_17_);fill-rule:evenodd;clip-rule:evenodd;fill:url(#SVGID_18_);}
	.st14{clip-path:url(#SVGID_17_);}
</style>
<g>
	<defs>
		<circle id="SVGID_16_" cx="118.5" cy="124.5" r="104.5"/>
	</defs>
	<clipPath id="SVGID_1_">
		<use xlink:href="#SVGID_16_"  style="overflow:visible;"/>
	</clipPath>
	<linearGradient id="SVGID_2_" gradientUnits="userSpaceOnUse" x1="11.9363" y1="231.2235" x2="224.4698" y2="18.6901">
		<stop  offset="0" style="stop-color:#14A1E6"/>
		<stop  offset="0.1186" style="stop-color:#1BABE2"/>
		<stop  offset="0.4102" style="stop-color:#2ABFDA"/>
		<stop  offset="0.7038" style="stop-color:#32CBD6"/>
		<stop  offset="1" style="stop-color:#35CFD4"/>
	</linearGradient>
	
		<rect x="11.75" y="18.88" style="clip-path:url(#SVGID_1_);fill-rule:evenodd;clip-rule:evenodd;fill:url(#SVGID_2_);" width="212.91" height="212.16"/>
	<g style="clip-path:url(#SVGID_1_);">
		<path class="st5" d="M182.99,57.8c-12.01-7.09-24.32-7.74-34.66-1.83c-10.38,5.93-16.58,17.25-16.58,24.77
			c0,2.44,1.98,4.42,4.43,4.42l0,0c2.45,0,4.08-1.67,4.43-4.43c0.52-4.12,4.31-12.62,12.12-17.08c7.57-4.33,16.49-3.71,25.77,1.77
			c6.92,4.08,10.02,14.95,8.93,22.68c-2.41,17.06-23.91,19.88-26.86,19.7c-2.46-0.16-4.55,1.68-4.71,4.12
			c-0.16,2.44,1.68,4.55,4.12,4.71c0.35,0.02,0.73,0.03,1.13,0.03c9.16,0,32.08-6.09,35.08-27.33
			C197.69,78.71,193.57,64.04,182.99,57.8z"/>
		<path class="st5" d="M139.92,200.59h-14.06v-41.92l34.45-62.96c0.75-1.37,0.72-3.04-0.08-4.39c-0.8-1.34-2.24-2.16-3.8-2.16
			c-0.01,0-0.02,0-0.02,0c-0.38,0-27.78,0.16-52.27,0.24L82.74,52.76c-0.79-1.36-2.25-2.19-3.82-2.19H53.47
			c-2.45,0-4.43,1.98-4.43,4.43c0,2.44,1.98,4.43,4.43,4.43h22.9l17.53,30.01c-5.17,0.01-9.98,0.02-14.09,0.02
			c-2.45,0-4.43,1.98-4.43,4.43c0,2.44,1.98,4.43,4.43,4.43c5.45,0,12.13-0.01,19.25-0.03l9.12,15.61l-7.38,0.05
			c-0.6,0-1.18,0.13-1.7,0.35l-5.84-9.17c-1.31-2.06-4.05-2.67-6.11-1.35c-2.06,1.31-2.67,4.05-1.35,6.11l31.2,48.96v41.76h-14.43
			c-2.44,0-4.43,1.98-4.43,4.43c0,2.44,1.98,4.43,4.43,4.43h37.34c2.44,0,4.42-1.98,4.42-4.43
			C144.35,202.58,142.37,200.59,139.92,200.59z M109.31,98.23c15.21-0.06,30.74-0.13,39.63-0.18l-8.54,15.6l-22,0.15L109.31,98.23z
			 M113.35,122.69l4.08,6.98c0.83,1.41,2.31,2.19,3.83,2.19c0.76,0,1.53-0.19,2.23-0.6c2.11-1.23,2.82-3.94,1.59-6.05l-1.51-2.59
			l11.99-0.08l-14.4,26.31l-16.63-26.09L113.35,122.69z"/>
	</g>
</g>
</svg>
