<?xml version="1.0" encoding="utf-8"?>
<!-- Generator: Adobe Illustrator 16.0.0, SVG Export Plug-In . SVG Version: 6.00 Build 0)  -->
<!DOCTYPE svg PUBLIC "-//W3C//DTD SVG 1.1//EN" "http://www.w3.org/Graphics/SVG/1.1/DTD/svg11.dtd">
<svg version="1.1" id="Layer_1" xmlns="http://www.w3.org/2000/svg" xmlns:xlink="http://www.w3.org/1999/xlink" x="0px" y="0px"
	 width="900px" height="423.078px" viewBox="0 0 900 423.078" enable-background="new 0 0 900 423.078" xml:space="preserve">
<rect x="22" y="35.417" fill="#FFFFFF" stroke="#000000" stroke-miterlimit="10" width="857.047" height="212.044"/>
<g>
	
		<linearGradient id="SVGID_1_" gradientUnits="userSpaceOnUse" x1="961.9795" y1="616.4072" x2="1175.9541" y2="402.4324" gradientTransform="matrix(1 0 0 1 -512 -367.9229)">
		<stop  offset="0" style="stop-color:#F47621"/>
		<stop  offset="0.1536" style="stop-color:#F38920"/>
		<stop  offset="0.4137" style="stop-color:#F4A41F"/>
		<stop  offset="0.6505" style="stop-color:#F6B91B"/>
		<stop  offset="0.8538" style="stop-color:#F6C618"/>
		<stop  offset="1" style="stop-color:#F7CA16"/>
	</linearGradient>
	<path fill="url(#SVGID_1_)" d="M449.073,204.37l23.421-0.127c4.129-11.145,10.768-22.419,15.779-33.314l40.076-83.036
		c2.627-5.259,4.887-12.896,10.021-15.402c7.637,0.5,9.52,9.392,12.521,15.152c2.758,5.01,7.895,13.652,10.023,18.662
		c3.752,8.893-5.391,15.282-11.4,3.883c-2.883-5.386-6.51-14.653-10.018-18.412c-8.395,15.781-55.609,118.854-61.119,123.361
		c-6.516,2.133-20.92,0.877-28.805,0.877l-0.501,31.563h215.792l-0.623-31.563c-38.455,0.256-27.557,6.391-49.727-37.196
		c-4.885-9.769-9.895-19.163-14.9-28.556c-3.384-6.386-12.275-22.92-14.279-29.179c-3.758,3.257-17.033,32.437-19.035,36.696
		c-10.521,21.417-16.41-6.761-24.426-15.905c-5.885,11.771-10.646,27.175-18.662,22.292c-6.76-4.136,5.889-22.92,11.65-34.69
		c9.143-18.913,17.909,9.142,23.42,16.784c7.643-8.769,15.777-40.706,25.674-44.464c5.889-0.5,13.025,16.78,16.156,23.546
		c4.385,9.142,8.77,16.784,13.402,25.926c4.635,9.019,8.643,17.156,13.15,26.048c3.754,7.641,11.271,19.789,13.396,26.928
		l24.802,0.127V35.417h-215.79L449.073,204.37L449.073,204.37z"/>
	
		<linearGradient id="SVGID_2_" gradientUnits="userSpaceOnUse" x1="758.0254" y1="583.6602" x2="949.7118" y2="391.9739" gradientTransform="matrix(1 0 0 1 -512 -367.9229)">
		<stop  offset="0" style="stop-color:#214E25"/>
		<stop  offset="0.056" style="stop-color:#30622E"/>
		<stop  offset="0.1237" style="stop-color:#3F7736"/>
		<stop  offset="0.2015" style="stop-color:#4C893C"/>
		<stop  offset="0.2924" style="stop-color:#569840"/>
		<stop  offset="0.4047" style="stop-color:#5DA243"/>
		<stop  offset="0.5624" style="stop-color:#61AA44"/>
		<stop  offset="1" style="stop-color:#63AC45"/>
	</linearGradient>
	<path fill="url(#SVGID_2_)" d="M234.658,204.37h67.253c10.269,0,13.401,1.625,19.666-4.135
		c22.792-20.538,11.646-61.744,5.758-69.386c-10.271,12.15-7.138,25.551-12.271,38.449c-9.018,2.507-10.898-2.877-13.902-10.144
		c-2.381-6.259-3.381-13.652-6.135-19.286l-14.902,28.056c-8.268,0.624-8.648-2.63-11.525-9.02
		c-2.128-4.884-4.258-10.269-5.51-15.654c-5.135-24.424,7.517-41.206,30.436-49.467c20.664-7.392,24.171-1.506,30.932-10.399
		c22.546-29.805,65.502-24.921,83.914-0.625c4.383,5.635,15.152,20.914,8.892,28.679c-6.136,4.009-17.786-13.151-34.816-14.401
		c-6.89-0.502-16.906,1.501-18.288,6.766c-0.498,1.876,14.284,40.324,17.037,56.984c3.256,20.413,0.125,26.422-4.762,43.332
		l72.644,0.252V35.417h-214.42V204.37z"/>
	
		<linearGradient id="SVGID_3_" gradientUnits="userSpaceOnUse" x1="746.6582" y1="528.9785" x2="961.5742" y2="528.9785" gradientTransform="matrix(1 0 0 1 -512 -367.9229)">
		<stop  offset="0" style="stop-color:#214E25"/>
		<stop  offset="0.056" style="stop-color:#30622E"/>
		<stop  offset="0.1237" style="stop-color:#3F7736"/>
		<stop  offset="0.2015" style="stop-color:#4C893C"/>
		<stop  offset="0.2924" style="stop-color:#569840"/>
		<stop  offset="0.4047" style="stop-color:#5DA243"/>
		<stop  offset="0.5624" style="stop-color:#61AA44"/>
		<stop  offset="1" style="stop-color:#63AC45"/>
	</linearGradient>
	<path fill="url(#SVGID_3_)" d="M234.783,216.014l-0.125,31.438l214.415,0.123l0.501-31.563c-14.908,0.125-29.813,0-44.714,0
		c-53.478,0-46.093,3.008-37.948-21.289c15.779-47.717-27.93-83.287-9.019-101.072c11.396-10.77,26.179-7.387,40.705-3.882
		l-6.14-6.887C376.43,71.362,349,70.106,333.973,89.769c-12.023,15.532-1.877,6.014-27.805,12.4
		c-41.205,10.269-34.193,39.328-28.555,45.84c2.127-6.386,10.645-20.168,14.777-23.546c12.527-10.019,13.151,10.645,16.535,18.535
		c1-10.022,13.522-31.313,24.797-26.177c3.885,2.002,6.893,14.654,8.264,19.666c6.516,23.922,8.896,48.592-7.514,67.255
		c-14.649,16.527-19.661,12.27-44.212,12.27C271.855,216.014,253.188,215.639,234.783,216.014L234.783,216.014z"/>
	<g>
		<path fill="#FFFFFF" d="M379.036,385.395c-0.841,0.252-2.163,0.502-3.966,0.754c-1.809,0.252-3.673,0.379-5.604,0.379
			c-1.848,0-3.506-0.127-4.974-0.379c-1.47-0.252-2.707-0.754-3.714-1.51c-1.007-0.757-1.785-1.783-2.33-3.084
			c-0.547-1.302-0.818-3-0.818-5.101v-37.772c0-1.933,0.356-3.589,1.069-4.974c0.713-1.388,1.742-2.623,3.086-3.715
			c1.341-1.093,3-2.078,4.973-2.959c1.974-0.882,4.092-1.656,6.359-2.33c2.266-0.672,4.615-1.195,7.051-1.574
			c2.433-0.377,4.867-0.565,7.302-0.565c4.029,0,7.22,0.776,9.569,2.33c2.35,1.555,3.525,4.09,3.525,7.616
			c0,1.177-0.171,2.33-0.505,3.464c-0.337,1.133-0.756,2.161-1.259,3.084c-1.764,0-3.567,0.086-5.414,0.254
			c-1.848,0.168-3.65,0.42-5.415,0.754c-1.763,0.336-3.421,0.692-4.974,1.069c-1.555,0.378-2.877,0.818-3.966,1.32v42.938H379.036
			L379.036,385.395z"/>
		<path fill="#FFFFFF" d="M439.347,387.533c-4.954,0-9.549-0.689-13.788-2.076c-4.236-1.385-7.932-3.463-11.077-6.23
			c-3.148-2.771-5.625-6.252-7.432-10.451c-1.805-4.194-2.707-9.106-2.707-14.729c0-5.539,0.902-10.303,2.707-14.293
			c1.807-3.983,4.176-7.26,7.115-9.817c2.937-2.562,6.295-4.449,10.072-5.668c3.775-1.218,7.638-1.826,11.585-1.826
			c4.445,0,8.499,0.674,12.147,2.016c3.652,1.344,6.799,3.191,9.443,5.541c2.645,2.352,4.701,5.162,6.172,8.436
			c1.467,3.273,2.202,6.846,2.202,10.701c0,2.855-0.799,5.037-2.394,6.549c-1.596,1.512-3.819,2.479-6.674,2.896l-31.101,4.66
			c0.923,2.768,2.812,4.848,5.667,6.231c2.852,1.385,6.126,2.076,9.821,2.076c3.439,0,6.691-0.439,9.758-1.322
			c3.063-0.881,5.561-1.908,7.491-3.082c1.343,0.838,2.476,2.015,3.398,3.523c0.924,1.512,1.386,3.105,1.386,4.785
			c0,3.775-1.764,6.59-5.289,8.436c-2.688,1.428-5.709,2.394-9.063,2.896C445.433,387.281,442.284,387.533,439.347,387.533z
			 M435.822,338.052c-2.017,0-3.758,0.337-5.229,1.007c-1.469,0.674-2.665,1.532-3.588,2.582c-0.925,1.051-1.616,2.225-2.077,3.524
			c-0.463,1.303-0.734,2.625-0.817,3.965l21.529-3.522c-0.252-1.681-1.176-3.357-2.77-5.037
			C441.277,338.893,438.926,338.052,435.822,338.052z"/>
		<path fill="#FFFFFF" d="M475.607,307.33c0-3.188,1.068-5.875,3.212-8.059c2.14-2.183,4.974-3.275,8.499-3.275
			c3.524,0,6.357,1.094,8.499,3.275c2.14,2.184,3.212,4.869,3.212,8.059c0,3.191-1.072,5.877-3.212,8.061
			c-2.142,2.184-4.975,3.271-8.499,3.271c-3.525,0-6.359-1.089-8.499-3.271C476.678,313.207,475.607,310.521,475.607,307.33z
			 M498.02,385.395c-0.924,0.166-2.285,0.396-4.091,0.69c-1.807,0.293-3.631,0.44-5.477,0.44c-1.85,0-3.506-0.127-4.977-0.379
			c-1.469-0.252-2.707-0.754-3.714-1.51c-1.007-0.758-1.784-1.783-2.329-3.085c-0.547-1.302-0.817-3-0.817-5.101v-51.246
			c0.924-0.168,2.286-0.396,4.093-0.689c1.804-0.296,3.63-0.44,5.477-0.44s3.507,0.125,4.976,0.377s2.707,0.756,3.716,1.512
			c1.006,0.754,1.782,1.783,2.328,3.084c0.545,1.304,0.815,3.004,0.815,5.101V385.395L498.02,385.395z"/>
		<path fill="#FFFFFF" d="M563.242,367.264c0,6.379-2.394,11.375-7.177,14.981c-4.785,3.608-11.837,5.414-21.153,5.414
			c-3.525,0-6.8-0.252-9.82-0.755c-3.021-0.506-5.604-1.28-7.745-2.331c-2.14-1.048-3.817-2.369-5.034-3.966
			c-1.22-1.594-1.824-3.479-1.824-5.666c0-2.018,0.419-3.715,1.259-5.102c0.839-1.385,1.846-2.535,3.021-3.463
			c2.438,1.346,5.228,2.541,8.374,3.588c3.148,1.053,6.777,1.574,10.894,1.574c2.601,0,4.595-0.377,5.979-1.133
			c1.387-0.754,2.078-1.764,2.078-3.021c0-1.175-0.504-2.099-1.512-2.771c-1.007-0.673-2.688-1.218-5.036-1.638l-3.776-0.756
			c-7.305-1.426-12.739-3.67-16.307-6.736c-3.569-3.063-5.352-7.446-5.352-13.157c0-3.104,0.672-5.916,2.015-8.437
			c1.342-2.518,3.229-4.615,5.666-6.297c2.435-1.678,5.352-2.979,8.752-3.902c3.398-0.922,7.153-1.385,11.269-1.385
			c3.104,0,6.022,0.232,8.752,0.693c2.728,0.461,5.101,1.154,7.112,2.076c2.018,0.926,3.608,2.121,4.784,3.59
			s1.764,3.209,1.764,5.225c0,1.933-0.356,3.588-1.068,4.976c-0.715,1.385-1.617,2.538-2.708,3.461
			c-0.672-0.42-1.681-0.858-3.021-1.322c-1.343-0.461-2.813-0.881-4.405-1.26c-1.597-0.375-3.213-0.69-4.849-0.942
			c-1.638-0.252-3.129-0.38-4.47-0.38c-2.771,0-4.911,0.316-6.423,0.947c-1.509,0.629-2.268,1.614-2.268,2.957
			c0,0.924,0.419,1.683,1.262,2.269c0.837,0.588,2.434,1.133,4.783,1.635l3.902,0.885c8.059,1.848,13.787,4.387,17.188,7.615
			C561.543,357.966,563.242,362.145,563.242,367.264z"/>
		<path fill="#FFFFFF" d="M606.553,387.533c-4.952,0-9.55-0.689-13.787-2.076c-4.238-1.385-7.932-3.463-11.08-6.23
			c-3.146-2.771-5.624-6.252-7.429-10.451c-1.806-4.194-2.707-9.106-2.707-14.729c0-5.539,0.901-10.303,2.707-14.293
			c1.805-3.983,4.175-7.26,7.113-9.817c2.938-2.562,6.297-4.449,10.074-5.668c3.774-1.218,7.636-1.826,11.583-1.826
			c4.447,0,8.5,0.674,12.148,2.016c3.651,1.344,6.8,3.191,9.444,5.541c2.644,2.352,4.698,5.162,6.168,8.436
			c1.468,3.273,2.204,6.846,2.204,10.701c0,2.855-0.799,5.037-2.395,6.549c-1.595,1.512-3.817,2.479-6.673,2.896l-31.1,4.66
			c0.922,2.768,2.812,4.848,5.665,6.231c2.853,1.385,6.127,2.076,9.819,2.076c3.441,0,6.692-0.439,9.761-1.322
			c3.063-0.881,5.56-1.908,7.489-3.082c1.344,0.838,2.478,2.015,3.399,3.523c0.923,1.512,1.385,3.105,1.385,4.785
			c0,3.775-1.762,6.59-5.288,8.436c-2.688,1.428-5.71,2.394-9.063,2.896C612.639,387.281,609.489,387.533,606.553,387.533z
			 M603.027,338.052c-2.016,0-3.76,0.337-5.228,1.007c-1.47,0.674-2.666,1.532-3.588,2.582c-0.925,1.051-1.617,2.225-2.077,3.524
			c-0.462,1.303-0.734,2.625-0.817,3.965l21.53-3.522c-0.253-1.681-1.178-3.357-2.771-5.037
			C608.482,338.893,606.132,338.052,603.027,338.052z"/>
		<path fill="#FFFFFF" d="M682.1,346.74c0-2.602-0.734-4.512-2.203-5.73c-1.471-1.215-3.464-1.822-5.979-1.822
			c-1.681,0-3.337,0.209-4.974,0.629c-1.639,0.42-3.044,1.052-4.22,1.89v43.69c-0.841,0.252-2.161,0.502-3.967,0.754
			s-3.673,0.379-5.604,0.379c-1.849,0-3.506-0.127-4.975-0.379c-1.47-0.252-2.707-0.754-3.714-1.51
			c-1.008-0.758-1.784-1.783-2.33-3.084c-0.546-1.303-0.816-3-0.816-5.102v-37.771c0-2.268,0.479-4.111,1.446-5.541
			c0.966-1.428,2.286-2.729,3.968-3.902c2.854-2.014,6.439-3.651,10.766-4.909c4.322-1.261,9.128-1.892,14.417-1.892
			c9.483,0,16.788,2.08,21.908,6.232c5.119,4.154,7.681,9.93,7.681,17.313v39.41c-0.84,0.252-2.161,0.502-3.967,0.754
			s-3.672,0.379-5.604,0.379c-1.847,0-3.506-0.127-4.974-0.379c-1.47-0.252-2.707-0.754-3.714-1.51
			c-1.008-0.757-1.785-1.783-2.33-3.085c-0.547-1.301-0.817-3-0.817-5.1L682.1,346.74L682.1,346.74z"/>
	</g>
	<g>
		
			<linearGradient id="SVGID_4_" gradientUnits="userSpaceOnUse" x1="1234.7656" y1="548.8457" x2="1268.6549" y2="514.9564" gradientTransform="matrix(1 0 0 1 -512 -367.9229)">
			<stop  offset="0" style="stop-color:#F36F21"/>
			<stop  offset="0.3025" style="stop-color:#F26522"/>
			<stop  offset="0.8478" style="stop-color:#EF4823"/>
			<stop  offset="1" style="stop-color:#EF3D23"/>
		</linearGradient>
		<path fill="url(#SVGID_4_)" d="M728.304,186.461h8.437c0.913-21,5.182-37.55,10.322-49.02
			C736.185,145.957,729.119,163.461,728.304,186.461z"/>
		
			<linearGradient id="SVGID_5_" gradientUnits="userSpaceOnUse" x1="1252.4873" y1="547.8877" x2="1283.5051" y2="516.87" gradientTransform="matrix(1 0 0 1 -512 -367.9229)">
			<stop  offset="0" style="stop-color:#F36F21"/>
			<stop  offset="0.3025" style="stop-color:#F26522"/>
			<stop  offset="0.8478" style="stop-color:#EF4823"/>
			<stop  offset="1" style="stop-color:#EF3D23"/>
		</linearGradient>
		<path fill="url(#SVGID_5_)" d="M759,186.461v-50.018c-5.535,9.784-10.945,27.018-12.018,50.018H759z"/>
		
			<linearGradient id="SVGID_6_" gradientUnits="userSpaceOnUse" x1="1273.8789" y1="451.8984" x2="1284.443" y2="441.3344" gradientTransform="matrix(1 0 0 1 -512 -367.9229)">
			<stop  offset="0" style="stop-color:#F36F21"/>
			<stop  offset="0.3025" style="stop-color:#F26522"/>
			<stop  offset="0.8478" style="stop-color:#EF4823"/>
			<stop  offset="1" style="stop-color:#EF3D23"/>
		</linearGradient>
		<path fill="url(#SVGID_6_)" d="M767.162,71.208c-4.465,0-8.479,5.254-9.797,8.254h19.593
			C775.64,76.461,771.626,71.208,767.162,71.208z"/>
		
			<linearGradient id="SVGID_7_" gradientUnits="userSpaceOnUse" x1="1269.75" y1="476.1348" x2="1289.2504" y2="456.6344" gradientTransform="matrix(1 0 0 1 -512 -367.9229)">
			<stop  offset="0" style="stop-color:#F36F21"/>
			<stop  offset="0.3025" style="stop-color:#F26522"/>
			<stop  offset="0.8478" style="stop-color:#EF4823"/>
			<stop  offset="1" style="stop-color:#EF3D23"/>
		</linearGradient>
		<rect x="757" y="89.461" fill="url(#SVGID_7_)" width="21" height="18"/>
		
			<linearGradient id="SVGID_8_" gradientUnits="userSpaceOnUse" x1="1217.2031" y1="550.8809" x2="1248.9491" y2="519.1349" gradientTransform="matrix(1 0 0 1 -512 -367.9229)">
			<stop  offset="0" style="stop-color:#F36F21"/>
			<stop  offset="0.3025" style="stop-color:#F26522"/>
			<stop  offset="0.8478" style="stop-color:#EF4823"/>
			<stop  offset="1" style="stop-color:#EF3D23"/>
		</linearGradient>
		<path fill="url(#SVGID_8_)" d="M708.705,186.461h9.357c0.577-17,4.516-32.058,10.978-43.157
			C714.205,154.906,711.148,169.461,708.705,186.461z"/>
		
			<linearGradient id="SVGID_9_" gradientUnits="userSpaceOnUse" x1="1271.6084" y1="544.9922" x2="1297.5311" y2="519.0696" gradientTransform="matrix(1 0 0 1 -512 -367.9229)">
			<stop  offset="0" style="stop-color:#F36F21"/>
			<stop  offset="0.3025" style="stop-color:#F26522"/>
			<stop  offset="0.8478" style="stop-color:#EF4823"/>
			<stop  offset="1" style="stop-color:#EF3D23"/>
		</linearGradient>
		<path fill="url(#SVGID_9_)" d="M769,135.461v51h13.433c-1.105-24-6.856-41-12.588-51H769z"/>
		
			<linearGradient id="SVGID_10_" gradientUnits="userSpaceOnUse" x1="1311.0898" y1="542.3789" x2="1328.9775" y2="524.4911" gradientTransform="matrix(1 0 0 1 -512 -367.9229)">
			<stop  offset="0" style="stop-color:#F36F21"/>
			<stop  offset="0.3025" style="stop-color:#F26522"/>
			<stop  offset="0.8478" style="stop-color:#EF4823"/>
			<stop  offset="1" style="stop-color:#EF3D23"/>
		</linearGradient>
		<path fill="url(#SVGID_10_)" d="M797.642,139.434c7.925,11.413,12.807,28.028,13.454,47.028h12.455
			C820.828,167.461,817.325,151.737,797.642,139.434z"/>
		
			<linearGradient id="SVGID_11_" gradientUnits="userSpaceOnUse" x1="1177.25" y1="615.6328" x2="1389.7498" y2="403.1331" gradientTransform="matrix(1 0 0 1 -512 -367.9229)">
			<stop  offset="0" style="stop-color:#F36F21"/>
			<stop  offset="0.3025" style="stop-color:#F26522"/>
			<stop  offset="0.8478" style="stop-color:#EF4823"/>
			<stop  offset="1" style="stop-color:#EF3D23"/>
		</linearGradient>
		<path fill="url(#SVGID_11_)" d="M665,35.461v169h173.297c3.313,0,6,2.687,6,6c0,3.313-2.687,6-6,6H665v31h213v-212H665z
			 M746.297,89.461c-2.762,0-5-2.239-5-5c0-2.761,2.238-5,5-5h1.826c1.1-7,7.573-15.06,15.877-16.796v-9.35
			c0-2.485,2.015-4.5,4.5-4.5s4.5,2.015,4.5,4.5v10.149c6.99,2.739,12.221,9.997,13.199,15.997h1.098c2.762,0,5,2.239,5,5
			c0,2.761-2.238,5-5,5H787v18h0.297c2.762,0,5,2.239,5,5c0,2.761-2.238,5-5,5h-41c-2.762,0-5-2.239-5-5c0-2.761,2.238-5,5-5H748
			v-18H746.297z M833.297,198.461h-133c-3.313,0-6-2.648-6-5.961c0-2.623,1.688-4.828,4.031-5.643
			c3.277-23.985,7.428-44.946,39.021-60.577c-0.028-0.247-0.052-0.53-0.052-0.785c0-3.313,2.688-6.034,6-6.034h47
			c3.313,0,6,2.725,6,6.039c0,0.471-0.06,0.947-0.162,1.387c30.344,15.496,34.523,36.128,37.752,59.671
			c3.036,0.296,5.41,2.822,5.41,5.937C839.297,195.809,836.61,198.461,833.297,198.461z"/>
		
			<linearGradient id="SVGID_12_" gradientUnits="userSpaceOnUse" x1="1292.0254" y1="541.7324" x2="1311.3942" y2="522.3637" gradientTransform="matrix(1 0 0 1 -512 -367.9229)">
			<stop  offset="0" style="stop-color:#F36F21"/>
			<stop  offset="0.3025" style="stop-color:#F26522"/>
			<stop  offset="0.8478" style="stop-color:#EF4823"/>
			<stop  offset="1" style="stop-color:#EF3D23"/>
		</linearGradient>
		<path fill="url(#SVGID_12_)" d="M782.539,137.811c5.057,11.474,9.232,27.65,10.137,48.65h8.181
			C800.05,164.461,793.162,146.458,782.539,137.811z"/>
	</g>
	<g>
		
			<linearGradient id="SVGID_13_" gradientUnits="userSpaceOnUse" x1="534.25" y1="615.6328" x2="746.7498" y2="403.1331" gradientTransform="matrix(1 0 0 1 -512 -367.9229)">
			<stop  offset="0" style="stop-color:#2CA0DA"/>
			<stop  offset="0.206" style="stop-color:#3BACD4"/>
			<stop  offset="0.4687" style="stop-color:#47B8CF"/>
			<stop  offset="0.7331" style="stop-color:#4DC0CC"/>
			<stop  offset="1" style="stop-color:#4EC4CC"/>
		</linearGradient>
		<path fill="url(#SVGID_13_)" d="M56.001,216.314c-3.18,0-6.001-2.558-6.001-5.71v-0.577c0-3.154,2.873-5.565,6.053-5.565H121
			V163.37l-31.193-48.956c-1.314-2.062-0.7-4.798,1.362-6.112c2.06-1.314,4.796-0.709,6.11,1.352l5.84,9.166
			c0.523-0.222,1.098-0.352,1.699-0.356l7.381-0.055l-9.122-15.618c-7.121,0.022-13.802,0.021-19.251,0.021
			c-2.445,0-4.426-2.007-4.426-4.452c0-2.445,1.98-4.478,4.426-4.478c4.107,0,8.917-0.151,14.086-0.164L80.379,63.461H57.475
			c-2.445,0-4.427-1.555-4.427-4c0-2.445,1.981-4,4.427-4H82.92c1.573,0,3.027,0.619,3.822,1.977l21.406,36.361
			c24.488-0.081,51.885-0.338,52.269-0.338c0,0,0.007,0,0.017,0c1.558,0,3.033,0.939,3.833,2.279
			c0.804,1.346,0.868,3.117,0.114,4.492L130,163.21v41.251h105v-169H22v212h213v-31.549L56.001,216.314z M152.33,60.503
			c10.34-5.907,22.652-5.258,34.664,1.833c10.58,6.245,14.695,20.91,13.197,31.538c-2.998,21.238-25.919,27.328-35.076,27.328
			c-0.406,0-0.784-0.012-1.135-0.034c-2.439-0.162-4.284-2.271-4.122-4.711c0.161-2.438,2.254-4.286,4.71-4.121
			c2.948,0.182,24.451-2.641,26.857-19.699c1.09-7.727-2.015-18.596-8.931-22.678c-9.288-5.484-18.202-6.095-25.774-1.769
			c-7.806,4.458-11.599,12.96-12.119,17.079c-0.349,2.757-1.98,4.426-4.426,4.427c-2.444,0-4.426-1.98-4.427-4.425
			C135.748,77.752,141.949,66.433,152.33,60.503z"/>
		
			<linearGradient id="SVGID_14_" gradientUnits="userSpaceOnUse" x1="626.4688" y1="510.6309" x2="646.823" y2="490.2767" gradientTransform="matrix(1 0 0 1 -512 -367.9229)">
			<stop  offset="0" style="stop-color:#2CA0DA"/>
			<stop  offset="0.206" style="stop-color:#3BACD4"/>
			<stop  offset="0.4687" style="stop-color:#47B8CF"/>
			<stop  offset="0.7331" style="stop-color:#4DC0CC"/>
			<stop  offset="1" style="stop-color:#4EC4CC"/>
		</linearGradient>
		<path fill="url(#SVGID_14_)" d="M125.15,153.39l14.397-26.312l-11.985,0.084l1.51,2.586c1.234,2.11,0.523,4.82-1.588,6.054
			c-0.701,0.41-1.471,0.605-2.229,0.605c-1.521,0-3.002-0.785-3.827-2.194l-4.077-6.98l-8.832,0.062L125.15,153.39z"/>
		
			<linearGradient id="SVGID_15_" gradientUnits="userSpaceOnUse" x1="633.7041" y1="485.5615" x2="656.8484" y2="462.4172" gradientTransform="matrix(1 0 0 1 -512 -367.9229)">
			<stop  offset="0" style="stop-color:#2CA0DA"/>
			<stop  offset="0.206" style="stop-color:#3BACD4"/>
			<stop  offset="0.4687" style="stop-color:#47B8CF"/>
			<stop  offset="0.7331" style="stop-color:#4DC0CC"/>
			<stop  offset="1" style="stop-color:#4EC4CC"/>
		</linearGradient>
		<path fill="url(#SVGID_15_)" d="M144.41,118.192l8.535-15.6c-8.895,0.047-24.421,0.124-39.635,0.179l9.1,15.574L144.41,118.192z"
			/>
	</g>
	<g>
		<path fill="#FFFFFF" d="M309.469,362.115c-0.567-0.891-1.096-2.07-1.583-3.531c-0.485-1.461-0.729-3.002-0.729-4.627
			c0-3.004,0.688-5.176,2.068-6.516c1.382-1.34,3.167-2.008,5.358-2.008h26.061c0.487,0.893,0.994,2.067,1.523,3.53
			c0.526,1.461,0.792,3.004,0.792,4.627c0,3.005-0.691,5.177-2.071,6.515c-1.381,1.342-3.166,2.01-5.356,2.01H309.469
			L309.469,362.115z"/>
	</g>
	<g>
		<path fill="#FFFFFF" d="M719.395,374.044c0-3.41,1.057-6.252,3.166-8.524c2.111-2.271,4.994-3.41,8.646-3.41
			c3.654,0,6.534,1.139,8.646,3.41c2.108,2.272,3.166,5.114,3.166,8.524c0,3.408-1.058,6.252-3.166,8.522
			c-2.112,2.271-4.992,3.41-8.646,3.41c-3.652,0-6.535-1.141-8.646-3.41C720.45,380.296,719.395,377.453,719.395,374.044z"/>
		<path fill="#FFFFFF" d="M748.256,354.316c0-5.359,0.813-10.006,2.438-13.945c1.623-3.936,3.875-7.203,6.758-9.803
			c2.881-2.596,6.251-4.525,10.106-5.783c3.854-1.26,8.018-1.889,12.481-1.889c1.624,0,3.207,0.143,4.75,0.426
			c1.541,0.287,2.802,0.631,3.774,1.035v-19.729c0.811-0.242,2.108-0.504,3.896-0.791c1.785-0.282,3.612-0.426,5.479-0.426
			c1.784,0,3.39,0.123,4.812,0.364c1.418,0.244,2.617,0.729,3.592,1.461c0.976,0.731,1.704,1.728,2.192,2.984
			c0.485,1.26,0.729,2.9,0.729,4.932v57.726c0,3.815-1.787,6.861-5.357,9.134c-2.354,1.543-5.399,2.903-9.133,4.077
			c-3.735,1.179-8.038,1.769-12.908,1.769c-5.278,0-10.008-0.732-14.188-2.193c-4.183-1.461-7.713-3.568-10.594-6.332
			c-2.883-2.76-5.076-6.066-6.576-9.924C749.006,363.55,748.256,359.188,748.256,354.316z M782.842,339.093
			c-4.385,0-7.755,1.261-10.106,3.775c-2.355,2.518-3.53,6.332-3.53,11.446c0,5.033,1.095,8.828,3.287,11.388
			c2.19,2.557,5.357,3.836,9.5,3.836c1.461,0,2.777-0.224,3.957-0.67c1.175-0.447,2.089-0.955,2.738-1.523v-26.791
			C787.063,339.58,785.112,339.093,782.842,339.093z"/>
		<path fill="#FFFFFF" d="M853.473,385.857c-4.791,0-9.233-0.67-13.334-2.01c-4.102-1.341-7.672-3.351-10.717-6.029
			c-3.044-2.678-5.438-6.047-7.185-10.107c-1.747-4.059-2.619-8.807-2.619-14.248c0-5.355,0.872-9.965,2.619-13.818
			c1.744-3.856,4.037-7.021,6.88-9.5c2.841-2.479,6.089-4.303,9.743-5.479c3.65-1.177,7.387-1.767,11.203-1.767
			c4.303,0,8.221,0.648,11.752,1.949c3.529,1.299,6.573,3.086,9.133,5.355c2.558,2.273,4.546,4.992,5.968,8.16
			c1.419,3.166,2.131,6.617,2.131,10.352c0,2.762-0.771,4.869-2.313,6.332c-1.543,1.461-3.695,2.396-6.454,2.803l-30.078,4.506
			c0.892,2.679,2.719,4.688,5.479,6.025c2.762,1.34,5.928,2.012,9.499,2.012c3.329,0,6.477-0.428,9.438-1.279
			c2.963-0.852,5.377-1.846,7.245-2.981c1.298,0.813,2.394,1.947,3.287,3.41c0.894,1.461,1.341,3.004,1.341,4.627
			c0,3.651-1.704,6.373-5.114,8.16c-2.6,1.381-5.521,2.313-8.769,2.799C859.359,385.613,856.313,385.857,853.473,385.857z
			 M850.063,337.998c-1.947,0-3.635,0.324-5.054,0.977c-1.421,0.648-2.578,1.479-3.472,2.494c-0.896,1.018-1.563,2.152-2.009,3.408
			c-0.447,1.262-0.711,2.539-0.791,3.838l20.821-3.408c-0.241-1.623-1.138-3.246-2.679-4.871
			C855.34,338.811,853.065,337.998,850.063,337.998z"/>
	</g>
	<g>
		<path fill="#FFFFFF" d="M91.896,323.996c0.838-0.252,2.16-0.504,3.967-0.756c1.804-0.252,3.67-0.377,5.603-0.377
			c1.846,0,3.503,0.125,4.974,0.377c1.467,0.252,2.707,0.756,3.715,1.512c1.006,0.756,1.781,1.785,2.328,3.084
			c0.545,1.303,0.819,3.002,0.819,5.102v27.068c0,3.443,0.838,5.898,2.519,7.367c1.678,1.469,4.111,2.201,7.302,2.201
			c1.931,0,3.505-0.166,4.723-0.502c1.215-0.334,2.159-0.672,2.833-1.008v-44.068c0.837-0.252,2.159-0.504,3.965-0.756
			c1.805-0.252,3.672-0.377,5.604-0.377c1.845,0,3.504,0.125,4.974,0.377c1.468,0.252,2.707,0.756,3.715,1.512
			c1.007,0.756,1.782,1.785,2.329,3.084c0.545,1.303,0.818,3.002,0.818,5.102v38.275c0,4.199-1.763,7.348-5.288,9.443
			c-2.939,1.848-6.443,3.254-10.515,4.217c-4.072,0.965-8.498,1.449-13.283,1.449c-4.532,0-8.709-0.504-12.527-1.512
			c-3.821-1.006-7.115-2.56-9.885-4.658c-2.771-2.098-4.91-4.805-6.422-8.121c-1.511-3.314-2.266-7.322-2.266-12.025v-36.01H91.896
			L91.896,323.996z"/>
		<path fill="#FFFFFF" d="M165.427,302.339c0.838-0.254,2.183-0.522,4.029-0.817c1.845-0.293,3.734-0.441,5.666-0.441
			c1.845,0,3.504,0.127,4.974,0.377c1.467,0.252,2.707,0.756,3.714,1.512c1.007,0.758,1.763,1.783,2.267,3.086
			s0.756,3.004,0.756,5.1v12.341c2.098-0.839,4.092-1.427,5.98-1.765c1.889-0.334,3.966-0.502,6.232-0.502
			c4.029,0,7.848,0.713,11.458,2.14c3.608,1.43,6.799,3.506,9.569,6.233c2.77,2.729,4.951,6.105,6.547,10.135
			c1.594,4.029,2.393,8.688,2.393,13.978c0,5.457-0.818,10.222-2.455,14.291c-1.637,4.072-3.926,7.451-6.862,10.138
			c-2.938,2.686-6.528,4.721-10.766,6.104c-4.239,1.385-8.92,2.078-14.038,2.078c-5.541,0-10.243-0.652-14.104-1.953
			c-3.86-1.3-7.135-2.914-9.82-4.847c-3.695-2.604-5.54-5.961-5.54-10.073V302.339L165.427,302.339z M194.891,369.449
			c3.859,0,6.861-1.322,9.002-3.967c2.141-2.646,3.211-6.566,3.211-11.771c0-5.289-1.092-9.23-3.274-11.836
			c-2.184-2.602-5.12-3.9-8.813-3.9c-1.68,0-3.128,0.168-4.344,0.504c-1.219,0.336-2.54,0.84-3.967,1.51v27.449
			c0.923,0.588,2.035,1.068,3.337,1.445C191.344,369.261,192.959,369.449,194.891,369.449z"/>
		<path fill="#FFFFFF" d="M264.896,321.227c4.532,0,8.666,0.461,12.402,1.385c3.733,0.924,6.924,2.328,9.568,4.217
			c2.644,1.889,4.679,4.281,6.107,7.178c1.426,2.896,2.141,6.316,2.141,10.262v28.205c0,2.187-0.61,3.967-1.826,5.353
			c-1.218,1.385-2.666,2.582-4.344,3.588c-5.458,3.274-13.139,4.912-23.042,4.912c-4.45,0-8.457-0.423-12.024-1.261
			c-3.569-0.838-6.633-2.1-9.191-3.776c-2.562-1.679-4.533-3.817-5.918-6.422c-1.385-2.601-2.078-5.623-2.078-9.063
			c0-5.794,1.72-10.24,5.162-13.349c3.441-3.104,8.771-5.035,15.991-5.791l16.495-1.765v-0.881c0-2.436-1.07-4.178-3.211-5.227
			c-2.141-1.051-5.226-1.574-9.255-1.574c-3.19,0-6.296,0.338-9.317,1.01s-5.75,1.51-8.185,2.519
			c-1.092-0.757-2.015-1.908-2.77-3.464c-0.755-1.551-1.134-3.168-1.134-4.848c0-2.184,0.523-3.924,1.574-5.229
			c1.049-1.299,2.664-2.41,4.848-3.334c2.434-0.924,5.309-1.594,8.625-2.016C258.83,321.436,261.957,321.227,264.896,321.227z
			 M265.903,370.708c1.426,0,3.001-0.146,4.722-0.44c1.721-0.293,3-0.693,3.84-1.195v-10.074l-9.065,0.756
			c-2.351,0.17-4.28,0.676-5.792,1.514c-1.511,0.84-2.266,2.101-2.266,3.775c0,1.682,0.648,3.043,1.951,4.092
			C260.593,370.186,262.797,370.708,265.903,370.708z"/>
	</g>
	<path fill="#FFFFFF" d="M81.27,373.496c-0.411,4.209-1.537,7.436-3.382,9.672c-1.846,2.236-4.531,3.359-8.056,3.359
		c-2.626,0-4.962-0.695-7.011-2.084c-2.05-1.387-4.264-3.738-6.641-7.053l-12.177-16.662v24.455
		c-0.903,0.178-2.235,0.424-3.998,0.737c-1.764,0.313-3.547,0.472-5.35,0.472c-1.805,0-3.425-0.136-4.858-0.402
		c-1.436-0.27-2.644-0.807-3.628-1.613c-0.985-0.807-1.743-1.902-2.275-3.291c-0.534-1.389-0.799-3.201-0.799-5.441V297.85
		c0.902-0.268,2.232-0.559,3.997-0.873c1.763-0.313,3.546-0.471,5.35-0.471c1.802,0,3.422,0.137,4.858,0.404
		c1.435,0.27,2.646,0.805,3.629,1.611c0.984,0.807,1.741,1.901,2.275,3.291c0.533,1.391,0.799,3.203,0.799,5.44v35.474
		l21.154-23.648c4.264,0,7.688,1.031,10.271,3.09c2.583,2.063,3.874,4.658,3.874,7.795c0,1.344-0.206,2.576-0.614,3.693
		c-0.412,1.121-1.046,2.264-1.907,3.426c-0.861,1.166-1.968,2.396-3.321,3.695s-2.933,2.801-4.735,4.5l-7.134,6.719L81.27,373.496z"
		/>
</g>
</svg>
