<svg height="512" viewBox="0 0 512 512" width="512" xmlns="http://www.w3.org/2000/svg"><g id="Flat"><path d="m488 156a28.942 28.942 0 0 1 -8.49 20.49l-79.51 79.51h-32v32l-191.51 191.51a28.963 28.963 0 0 1 -40.98 0l-103.02-103.02a28.963 28.963 0 0 1 0-40.98l21.74-21.74 169.77-169.77h32v-32l79.51-79.51a28.963 28.963 0 0 1 40.98 0l103.02 103.02a28.975 28.975 0 0 1 8.49 20.49z" fill="#348fd9"/><path d="m488 156a28.942 28.942 0 0 1 -8.49 20.49l-79.51 79.51h-32v32l-191.51 191.51a28.963 28.963 0 0 1 -40.98 0l-103.02-103.02a28.963 28.963 0 0 1 0-40.98l21.74-21.74c144.18-21.93 293.22-76.08 424.07-179.47l1.21 1.21a28.975 28.975 0 0 1 8.49 20.49z" fill="#3086cd"/><path d="m272 156.686h16v22.627h-16z" fill="#2d7dbf" transform="matrix(.707 -.707 .707 .707 -36.784 247.196)"/><path d="m304 188.686h16v22.627h-16z" fill="#2d7dbf" transform="matrix(.707 -.707 .707 .707 -50.039 279.196)"/><path d="m336 220.686h16v22.627h-16z" fill="#2d7dbf" transform="matrix(.707 -.707 .707 .707 -63.294 311.196)"/><path d="m55.716 324h56.569v16h-56.569z" fill="#62a9e6" transform="matrix(.707 -.707 .707 .707 -210.156 156.638)"/><path d="m79.716 348h56.569v16h-56.569z" fill="#62a9e6" transform="matrix(.707 -.707 .707 .707 -220.098 180.638)"/><path d="m103.716 372h56.569v16h-56.569z" fill="#62a9e6" transform="matrix(.707 -.707 .707 .707 -230.039 204.638)"/><path d="m127.716 396h56.569v16h-56.569z" fill="#62a9e6" transform="matrix(.707 -.707 .707 .707 -239.98 228.638)"/><path d="m151.716 420h56.569v16h-56.569z" fill="#62a9e6" transform="matrix(.707 -.707 .707 .707 -249.921 252.638)"/><path d="m154.992 311.224 32 32 98.892-98.892a7.224 7.224 0 0 0 0-10.216 7.223 7.223 0 0 0 -6.86-1.9l-28.032 7.008-64 64z" fill="#f35244"/><path d="m162.992 255.224 64 8-24 24-48-24z" fill="#c84431"/><path d="m226.992 303.224 32 48 8-8-16-64z" fill="#c84431"/><g fill="#62a9e6"><path d="m432 129.373h16v45.255h-16z" transform="matrix(.707 -.707 .707 .707 21.393 355.647)"/><path d="m408 153.373h16v45.255h-16z" transform="matrix(.707 -.707 .707 .707 -2.607 345.706)"/><path d="m384 177.373h16v45.255h-16z" transform="matrix(.707 -.707 .707 .707 -26.607 335.765)"/><path d="m340.402 132h79.196v16h-79.196z" transform="matrix(.707 -.707 .707 .707 12.304 309.706)"/><path d="m316.402 108h79.196v16h-79.196z" transform="matrix(.707 -.707 .707 .707 22.246 285.706)"/><path d="m292.402 84h79.196v16h-79.196z" transform="matrix(.707 -.707 .707 .707 32.187 261.706)"/></g></g></svg>