<?xml version="1.0" encoding="utf-8"?>
<!-- Generator: Adobe Illustrator 23.0.0, SVG Export Plug-In . SVG Version: 6.00 Build 0)  -->
<svg version="1.1" id="Capa_1" xmlns="http://www.w3.org/2000/svg" xmlns:xlink="http://www.w3.org/1999/xlink" x="0px" y="0px"
	 viewBox="0 0 250 248" style="enable-background:new 0 0 250 248;" xml:space="preserve">
<style type="text/css">
	.st0{fill-rule:evenodd;clip-rule:evenodd;fill:url(#SVGID_1_);}
	.st1{fill-rule:evenodd;clip-rule:evenodd;fill:url(#SVGID_2_);}
	.st2{fill-rule:evenodd;clip-rule:evenodd;fill:url(#SVGID_3_);}
	.st3{fill-rule:evenodd;clip-rule:evenodd;fill:url(#SVGID_4_);}
	.st4{fill-rule:evenodd;clip-rule:evenodd;fill:url(#SVGID_5_);}
	.st5{fill:#FFFFFF;}
	.st6{fill-rule:evenodd;clip-rule:evenodd;fill:#FFFFFF;}
	.st7{clip-path:url(#SVGID_7_);fill-rule:evenodd;clip-rule:evenodd;fill:url(#SVGID_8_);}
	.st8{clip-path:url(#SVGID_10_);}
	.st9{fill-rule:evenodd;clip-rule:evenodd;fill:url(#SVGID_11_);}
	.st10{fill-rule:evenodd;clip-rule:evenodd;fill:url(#SVGID_12_);}
	.st11{clip-path:url(#SVGID_14_);}
	.st12{fill-rule:evenodd;clip-rule:evenodd;fill:url(#SVGID_15_);}
	.st13{clip-path:url(#SVGID_17_);fill-rule:evenodd;clip-rule:evenodd;fill:url(#SVGID_18_);}
	.st14{clip-path:url(#SVGID_17_);}
</style>
<g>
	<defs>
		<circle id="SVGID_6_" cx="125.5" cy="124.5" r="104.5"/>
	</defs>
	<clipPath id="SVGID_1_">
		<use xlink:href="#SVGID_6_"  style="overflow:visible;"/>
	</clipPath>
	<linearGradient id="SVGID_2_" gradientUnits="userSpaceOnUse" x1="18.982" y1="231.944" x2="232.9564" y2="17.9696">
		<stop  offset="0" style="stop-color:#F97510"/>
		<stop  offset="0.252" style="stop-color:#F8930F"/>
		<stop  offset="0.5532" style="stop-color:#F8B10E"/>
		<stop  offset="0.8131" style="stop-color:#F7C30D"/>
		<stop  offset="1" style="stop-color:#F7C90D"/>
	</linearGradient>
	<path style="clip-path:url(#SVGID_1_);fill-rule:evenodd;clip-rule:evenodd;fill:url(#SVGID_2_);" d="M18.07,187.83l23.42-0.13
		c4.13-11.14,10.77-22.42,15.78-33.31l40.08-83.04c2.63-5.26,4.88-12.9,10.02-15.4c7.64,0.5,9.52,9.39,12.52,15.15
		c2.76,5.01,7.89,13.65,10.02,18.66c3.75,8.89-5.39,15.28-11.4,3.88c-2.88-5.39-6.51-14.65-10.02-18.41
		c-8.39,15.78-55.61,118.85-61.12,123.36c-6.52,2.13-20.92,0.88-28.8,0.88l-0.5,31.56h215.79l-0.62-31.56
		c-38.46,0.26-27.55,6.39-49.72-37.2c-4.88-9.77-9.89-19.16-14.9-28.56c-3.38-6.39-12.28-22.92-14.28-29.18
		c-3.76,3.26-17.03,32.44-19.04,36.7c-10.52,21.42-16.41-6.76-24.43-15.91c-5.88,11.77-10.64,27.18-18.66,22.29
		c-6.76-4.14,5.89-22.92,11.65-34.69c9.14-18.91,17.91,9.14,23.42,16.78c7.64-8.77,15.78-40.71,25.67-44.46
		c5.89-0.5,13.03,16.78,16.16,23.55c4.38,9.14,8.77,16.78,13.4,25.93c4.63,9.02,8.64,17.16,13.15,26.05
		c3.75,7.64,11.27,19.79,13.4,26.93l24.8,0.13V18.88H18.07V187.83z"/>
</g>
</svg>
