<?xml version="1.0" encoding="utf-8"?>
<!-- Generator: Adobe Illustrator 23.0.0, SVG Export Plug-In . SVG Version: 6.00 Build 0)  -->
<svg version="1.1" id="Capa_1" xmlns="http://www.w3.org/2000/svg" xmlns:xlink="http://www.w3.org/1999/xlink" x="0px" y="0px"
	 viewBox="0 0 250 248" style="enable-background:new 0 0 250 248;" xml:space="preserve">
<style type="text/css">
	.st0{fill-rule:evenodd;clip-rule:evenodd;fill:url(#SVGID_1_);}
	.st1{fill-rule:evenodd;clip-rule:evenodd;fill:url(#SVGID_2_);}
	.st2{fill-rule:evenodd;clip-rule:evenodd;fill:url(#SVGID_3_);}
	.st3{fill-rule:evenodd;clip-rule:evenodd;fill:url(#SVGID_4_);}
	.st4{fill-rule:evenodd;clip-rule:evenodd;fill:url(#SVGID_5_);}
	.st5{fill:#FFFFFF;}
	.st6{fill-rule:evenodd;clip-rule:evenodd;fill:#FFFFFF;}
	.st7{clip-path:url(#SVGID_7_);fill-rule:evenodd;clip-rule:evenodd;fill:url(#SVGID_8_);}
	.st8{clip-path:url(#SVGID_10_);}
	.st9{fill-rule:evenodd;clip-rule:evenodd;fill:url(#SVGID_11_);}
	.st10{fill-rule:evenodd;clip-rule:evenodd;fill:url(#SVGID_12_);}
	.st11{clip-path:url(#SVGID_14_);}
	.st12{fill-rule:evenodd;clip-rule:evenodd;fill:url(#SVGID_15_);}
	.st13{clip-path:url(#SVGID_17_);fill-rule:evenodd;clip-rule:evenodd;fill:url(#SVGID_18_);}
	.st14{clip-path:url(#SVGID_17_);}
</style>
<g>
	<defs>
		<circle id="SVGID_9_" cx="124.5" cy="124.5" r="105.5"/>
	</defs>
	<clipPath id="SVGID_1_">
		<use xlink:href="#SVGID_9_"  style="overflow:visible;"/>
	</clipPath>
	<g style="clip-path:url(#SVGID_1_);">
		<linearGradient id="SVGID_2_" gradientUnits="userSpaceOnUse" x1="27.0238" y1="199.1967" x2="218.7076" y2="7.5128">
			<stop  offset="0" style="stop-color:#004D00"/>
			<stop  offset="0.026" style="stop-color:#0C5900"/>
			<stop  offset="0.0958" style="stop-color:#277201"/>
			<stop  offset="0.1761" style="stop-color:#3D8702"/>
			<stop  offset="0.2698" style="stop-color:#4E9702"/>
			<stop  offset="0.3858" style="stop-color:#59A303"/>
			<stop  offset="0.5484" style="stop-color:#60A903"/>
			<stop  offset="1" style="stop-color:#62AB03"/>
		</linearGradient>
		<path class="st1" d="M15.66,187.83h67.25c10.27,0,13.4,1.63,19.67-4.13c22.79-20.54,11.65-61.74,5.76-69.39
			c-10.27,12.15-7.14,25.55-12.27,38.45c-9.02,2.51-10.9-2.88-13.9-10.14c-2.38-6.26-3.38-13.65-6.13-19.29l-14.9,28.06
			c-8.27,0.62-8.65-2.63-11.53-9.02c-2.13-4.88-4.26-10.27-5.51-15.65c-5.13-24.42,7.52-41.21,30.44-49.47
			c20.66-7.39,24.17-1.51,30.93-10.4c22.55-29.8,65.5-24.92,83.91-0.63c4.38,5.64,15.15,20.91,8.89,28.68
			c-6.14,4.01-17.79-13.15-34.82-14.4c-6.89-0.5-16.91,1.5-18.29,6.77c-0.5,1.88,14.28,40.32,17.04,56.98
			c3.26,20.41,0.13,26.42-4.76,43.33l72.64,0.25V18.88H15.66V187.83z"/>
		<linearGradient id="SVGID_3_" gradientUnits="userSpaceOnUse" x1="15.6582" y1="144.5165" x2="230.5742" y2="144.5165">
			<stop  offset="0" style="stop-color:#004D00"/>
			<stop  offset="0.026" style="stop-color:#0C5900"/>
			<stop  offset="0.0958" style="stop-color:#277201"/>
			<stop  offset="0.1761" style="stop-color:#3D8702"/>
			<stop  offset="0.2698" style="stop-color:#4E9702"/>
			<stop  offset="0.3858" style="stop-color:#59A303"/>
			<stop  offset="0.5484" style="stop-color:#60A903"/>
			<stop  offset="1" style="stop-color:#62AB03"/>
		</linearGradient>
		<path class="st2" d="M15.78,199.47l-0.13,31.44l214.41,0.12l0.5-31.56c-14.91,0.13-29.81,0-44.71,0
			c-53.48,0-46.09,3.01-37.95-21.29c15.78-47.72-27.93-83.29-9.02-101.07c11.39-10.77,26.18-7.39,40.71-3.88l-6.14-6.89
			c-16.03-11.52-43.46-12.78-58.49,6.89c-12.03,15.53-1.88,6.01-27.8,12.4c-41.21,10.27-34.19,39.33-28.55,45.84
			c2.13-6.39,10.64-20.17,14.78-23.55c12.53-10.02,13.15,10.65,16.54,18.54c1-10.02,13.52-31.31,24.8-26.18
			c3.88,2,6.89,14.65,8.26,19.67c6.52,23.92,8.9,48.59-7.51,67.25c-14.65,16.53-19.66,12.27-44.21,12.27
			C52.86,199.47,34.19,199.1,15.78,199.47L15.78,199.47z"/>
	</g>
</g>
</svg>
