<?xml version="1.0" encoding="iso-8859-1"?>
<!-- Generator: Adobe Illustrator 19.0.0, SVG Export Plug-In . SVG Version: 6.00 Build 0)  -->
<svg version="1.1" id="Capa_1" xmlns="http://www.w3.org/2000/svg" xmlns:xlink="http://www.w3.org/1999/xlink" x="0px" y="0px"
	 viewBox="0 0 512 512" style="enable-background:new 0 0 512 512;" xml:space="preserve">
<path style="fill:#FFCDAC;" d="M253.05,256h72.101c8.781,0,15.899-7.118,15.899-15.899l0,0c0-8.781-7.118-15.899-15.899-15.899
	H253.05V256z"/>
<path style="fill:#898998;" d="M396.797,422h78.255l-6.322-19.305c-3.587-10.954-13.808-18.361-25.334-18.361h-39.771"/>
<path style="fill:#6A80FF;" d="M289.913,312h33.713c22.091,0,40,17.909,40,40v70h40v-78.713c0-48.207-39.08-87.287-87.287-87.287
	H249.05L289.913,312z"/>
<path style="fill:#FF5D5D;" d="M169.05,262.078V130c0-22.091,17.909-40,40-40l0,0c22.091,0,40,17.909,40,40v132.078H169.05z"/>
<circle style="fill:#FFCDAC;" cx="209.05" cy="50" r="40"/>
<g>
	<circle style="fill:#72D8FF;" cx="381.85" cy="462" r="40"/>
	<circle style="fill:#72D8FF;" cx="169.05" cy="370" r="132"/>
</g>
<circle style="fill:#FFFFFF;" cx="169.05" cy="370" r="84"/>
<path d="M69.019,269.215l-0.411,0.41c-3.887,3.923-3.856,10.255,0.067,14.142c1.949,1.932,4.493,2.896,7.037,2.896
	c2.574,0,5.149-0.988,7.104-2.963l0.21-0.209c3.942-3.868,4.002-10.2,0.134-14.142C79.292,265.406,72.96,265.346,69.019,269.215z"/>
<path d="M193.406,300.103c5.22,1.813,10.917-0.945,12.729-6.162c1.813-5.217-0.945-10.916-6.162-12.729
	c-16.442-5.716-34.136-6.757-51.171-3.017c-17.509,3.847-33.492,12.607-46.221,25.337c-36.65,36.65-36.65,96.285,0,132.936
	C120.336,454.222,143.942,464,169.05,464s48.714-9.778,66.468-27.532c26.611-26.611,34.792-66.395,20.843-101.352
	c-2.048-5.13-7.867-7.625-12.994-5.582c-5.13,2.047-7.629,7.865-5.582,12.994c10.983,27.523,4.543,58.846-16.409,79.797
	C207.399,436.303,188.816,444,169.05,444c-19.767,0-38.35-7.697-52.326-21.675c-28.853-28.853-28.853-75.798,0-104.65
	C136.659,297.738,166.762,290.842,193.406,300.103z"/>
<path d="M221.587,317.885c1.947,1.904,4.475,2.854,7.001,2.854c2.596,0,5.188-1.004,7.146-3.005
	c3.861-3.947,3.798-10.273-0.15-14.136c-0.025-0.025-0.118-0.118-0.145-0.144c-3.947-3.86-10.283-3.798-14.147,0.15
	c-3.861,3.947-3.798,10.273,0.15,14.136C221.468,317.767,221.561,317.859,221.587,317.885z"/>
<path d="M484.556,418.889l-6.322-19.307c-4.945-15.103-18.945-25.249-34.837-25.249h-29.771v-31.046
	c0-42.405-27.273-78.553-65.197-91.842c1.677-3.428,2.622-7.277,2.622-11.343c0-14.281-11.618-25.899-25.899-25.899H259.05V130
	c0-16.339-7.878-30.87-20.035-40c12.156-9.13,20.035-23.661,20.035-40c0-27.57-22.43-50-50-50s-50,22.43-50,50
	c0,4.9,0.721,9.632,2.041,14.11C153.079,57.787,142.979,54,132.004,54H67.959c-5.522,0-10,4.478-10,10s4.478,10,10,10h64.045
	c14.913,0,27.046,12.133,27.046,27.046V130v98.415c-19.75,1.413-39.176,6.872-56.618,16.142c-4.877,2.592-6.729,8.646-4.137,13.523
	c2.592,4.876,8.646,6.729,13.523,4.137c47.641-25.32,105.31-16.672,143.498,21.517c47.568,47.567,47.568,124.966,0,172.533
	C232.275,479.31,201.637,492,169.05,492s-63.225-12.69-86.267-35.733c-37.466-37.465-46.521-94.344-22.535-141.537
	c2.502-4.924,0.539-10.943-4.384-13.446c-4.922-2.5-10.943-0.539-13.446,4.384c-27.92,54.934-17.382,121.139,26.223,164.742
	C95.461,497.229,131.12,512,169.05,512c37.169,0,72.152-14.192,98.779-40h65.026c4.646,22.795,24.847,40,48.994,40
	c27.57,0,50-22.43,50-50c0-11.247-3.735-21.637-10.027-30h53.23c3.205,0,6.216-1.536,8.097-4.131
	C485.03,425.273,485.553,421.935,484.556,418.889z M325.151,234.202c3.253,0,5.899,2.646,5.899,5.899
	c0,3.252-2.646,5.898-5.899,5.898h-8.813H259.05v-11.798h66.101V234.202z M209.05,20c16.542,0,30,13.458,30,30s-13.458,30-30,30
	s-30-13.458-30-30S192.508,20,209.05,20z M177.937,90.903c-0.167-0.753-0.35-1.5-0.552-2.239c0.557,0.457,1.124,0.904,1.7,1.337
	C178.695,90.292,178.317,90.599,177.937,90.903z M179.05,228.376V130c0-16.542,13.458-30,30-30s30,13.458,30,30v116.407
	c-15.295-8.686-32.13-14.462-49.939-16.991C185.77,228.942,182.412,228.608,179.05,228.376z M265.723,266h50.615
	c42.616,0,77.287,34.671,77.287,77.287v69.235c-0.473,0.158-0.929,0.351-1.367,0.575c-3.359-0.714-6.84-1.097-10.409-1.097
	c-2.802,0-5.546,0.243-8.224,0.688V352c0-27.57-22.43-50-50-50h-29.91c-6.341-11.638-14.42-22.573-24.256-32.409
	C268.234,268.366,266.984,267.175,265.723,266z M302.672,322h20.953c16.542,0,30,13.458,30,30v68.755
	c-10.509,7.214-18.138,18.329-20.77,31.245h-47.869C312.104,413.7,318,364.878,302.672,322z M381.849,492c-16.542,0-30-13.458-30-30
	s13.458-30,30-30s30,13.458,30,30S398.391,492,381.849,492z M413.625,412v-17.667h29.771c7.222,0,13.583,4.61,15.83,11.473
	l2.028,6.194H413.625z"/>
<g>
</g>
<g>
</g>
<g>
</g>
<g>
</g>
<g>
</g>
<g>
</g>
<g>
</g>
<g>
</g>
<g>
</g>
<g>
</g>
<g>
</g>
<g>
</g>
<g>
</g>
<g>
</g>
<g>
</g>
</svg>
