<?xml version="1.0" encoding="utf-8"?>
<!-- Generator: Adobe Illustrator 15.0.0, SVG Export Plug-In . SVG Version: 6.00 Build 0)  -->
<!DOCTYPE svg PUBLIC "-//W3C//DTD SVG 1.1//EN" "http://www.w3.org/Graphics/SVG/1.1/DTD/svg11.dtd">
<svg version="1.1" id="Layer_1" xmlns="http://www.w3.org/2000/svg" xmlns:xlink="http://www.w3.org/1999/xlink" x="0px" y="0px"
	 width="900px" height="423.077px" viewBox="0 0 900 423.077" enable-background="new 0 0 900 423.077" xml:space="preserve">
<g>
	<linearGradient id="SVGID_1_" gradientUnits="userSpaceOnUse" x1="449.9829" y1="248.4829" x2="663.9573" y2="34.5085">
		<stop  offset="0" style="stop-color:#F47621"/>
		<stop  offset="0.1536" style="stop-color:#F38920"/>
		<stop  offset="0.4137" style="stop-color:#F4A41F"/>
		<stop  offset="0.6505" style="stop-color:#F6B91B"/>
		<stop  offset="0.8538" style="stop-color:#F6C618"/>
		<stop  offset="1" style="stop-color:#F7CA16"/>
	</linearGradient>
	<path fill-rule="evenodd" clip-rule="evenodd" fill="url(#SVGID_1_)" d="M449.073,204.37l23.421-0.127
		c4.129-11.145,10.768-22.419,15.779-33.314l40.078-83.036c2.627-5.259,4.885-12.896,10.02-15.402
		c7.637,0.5,9.52,9.392,12.521,15.152c2.756,5.01,7.893,13.652,10.023,18.662c3.752,8.893-5.391,15.282-11.4,3.883
		c-2.883-5.386-6.51-14.653-10.018-18.412c-8.393,15.781-55.609,118.854-61.119,123.361c-6.516,2.133-20.92,0.877-28.805,0.877
		l-0.501,31.561h215.792l-0.623-31.561c-38.455,0.256-27.555,6.391-49.725-37.196c-4.885-9.769-9.895-19.163-14.902-28.556
		c-3.383-6.386-12.275-22.92-14.279-29.179c-3.758,3.257-17.033,32.437-19.035,36.696c-10.523,21.417-16.41-6.761-24.426-15.905
		c-5.885,11.771-10.645,27.175-18.662,22.292c-6.76-4.136,5.889-22.92,11.65-34.69c9.143-18.913,17.91,9.142,23.42,16.784
		c7.643-8.769,15.779-40.706,25.674-44.464c5.889-0.5,13.025,16.78,16.156,23.546c4.385,9.142,8.77,16.784,13.404,25.926
		c4.633,9.019,8.641,17.156,13.15,26.048c3.754,7.641,11.27,19.789,13.396,26.928l24.801,0.127V35.417H449.073V204.37z"/>
	<linearGradient id="SVGID_2_" gradientUnits="userSpaceOnUse" x1="246.0244" y1="215.7358" x2="437.7083" y2="24.052">
		<stop  offset="0" style="stop-color:#214E25"/>
		<stop  offset="0.056" style="stop-color:#30622E"/>
		<stop  offset="0.1237" style="stop-color:#3F7736"/>
		<stop  offset="0.2015" style="stop-color:#4C893C"/>
		<stop  offset="0.2924" style="stop-color:#569840"/>
		<stop  offset="0.4047" style="stop-color:#5DA243"/>
		<stop  offset="0.5624" style="stop-color:#61AA44"/>
		<stop  offset="1" style="stop-color:#63AC45"/>
	</linearGradient>
	<path fill-rule="evenodd" clip-rule="evenodd" fill="url(#SVGID_2_)" d="M234.658,204.37h67.253
		c10.269,0,13.401,1.625,19.666-4.135c22.792-20.538,11.647-61.744,5.758-69.386c-10.271,12.15-7.138,25.551-12.272,38.449
		c-9.016,2.507-10.898-2.877-13.902-10.144c-2.381-6.259-3.381-13.652-6.135-19.286l-14.902,28.056
		c-8.268,0.624-8.648-2.63-11.525-9.02c-2.128-4.884-4.258-10.269-5.51-15.654c-5.135-24.424,7.517-41.206,30.436-49.467
		c20.663-7.392,24.171-1.506,30.932-10.399c22.546-29.805,65.502-24.921,83.914-0.625c4.383,5.635,15.152,20.914,8.892,28.679
		c-6.136,4.009-17.786-13.151-34.818-14.401c-6.888-0.502-16.906,1.501-18.288,6.766c-0.498,1.876,14.284,40.324,17.037,56.984
		c3.256,20.413,0.125,26.422-4.76,43.332l72.642,0.252V35.417H234.658V204.37z"/>
	<linearGradient id="SVGID_3_" gradientUnits="userSpaceOnUse" x1="234.6582" y1="161.0552" x2="449.5742" y2="161.0552">
		<stop  offset="0" style="stop-color:#214E25"/>
		<stop  offset="0.056" style="stop-color:#30622E"/>
		<stop  offset="0.1237" style="stop-color:#3F7736"/>
		<stop  offset="0.2015" style="stop-color:#4C893C"/>
		<stop  offset="0.2924" style="stop-color:#569840"/>
		<stop  offset="0.4047" style="stop-color:#5DA243"/>
		<stop  offset="0.5624" style="stop-color:#61AA44"/>
		<stop  offset="1" style="stop-color:#63AC45"/>
	</linearGradient>
	<path fill-rule="evenodd" clip-rule="evenodd" fill="url(#SVGID_3_)" d="M234.783,216.013l-0.125,31.438l214.415,0.122
		l0.501-31.561c-14.908,0.125-29.811,0-44.714,0c-53.476,0-46.091,3.008-37.948-21.289c15.779-47.717-27.93-83.287-9.017-101.072
		c11.395-10.77,26.177-7.387,40.705-3.882l-6.14-6.887c-16.029-11.52-43.459-12.776-58.486,6.887
		c-12.025,15.532-1.877,6.014-27.805,12.4c-41.205,10.269-34.193,39.328-28.555,45.84c2.127-6.386,10.645-20.168,14.777-23.546
		c12.527-10.019,13.151,10.645,16.535,18.535c1-10.022,13.522-31.313,24.797-26.177c3.883,2.002,6.891,14.654,8.262,19.666
		c6.516,23.922,8.896,48.592-7.512,67.255c-14.651,16.527-19.662,12.27-44.213,12.27
		C271.855,216.013,253.188,215.638,234.783,216.013L234.783,216.013z"/>
	<g>
		<path fill="#676767" d="M379.036,385.394c-0.841,0.252-2.163,0.502-3.966,0.754c-1.807,0.252-3.673,0.379-5.604,0.379
			c-1.848,0-3.506-0.127-4.974-0.379c-1.47-0.252-2.707-0.754-3.714-1.51s-1.785-1.783-2.33-3.084c-0.547-1.301-0.818-3-0.818-5.1
			v-37.773c0-1.932,0.356-3.588,1.069-4.973c0.713-1.387,1.742-2.623,3.086-3.715c1.341-1.092,3-2.078,4.973-2.959
			c1.972-0.881,4.092-1.656,6.359-2.33c2.266-0.672,4.615-1.195,7.051-1.574c2.433-0.377,4.867-0.566,7.302-0.566
			c4.029,0,7.218,0.777,9.569,2.33c2.35,1.555,3.525,4.09,3.525,7.617c0,1.176-0.169,2.33-0.503,3.463
			c-0.337,1.133-0.756,2.162-1.259,3.084c-1.764,0-3.569,0.086-5.414,0.254c-1.848,0.168-3.652,0.42-5.415,0.754
			c-1.763,0.336-3.421,0.693-4.974,1.07c-1.555,0.377-2.877,0.818-3.966,1.32V385.394z"/>
		<path fill="#676767" d="M439.347,387.533c-4.954,0-9.549-0.689-13.788-2.076c-4.238-1.385-7.932-3.463-11.079-6.232
			c-3.148-2.77-5.625-6.252-7.43-10.451c-1.805-4.195-2.707-9.107-2.707-14.73c0-5.539,0.902-10.303,2.707-14.293
			c1.805-3.984,4.176-7.26,7.115-9.818c2.937-2.561,6.295-4.449,10.072-5.668c3.777-1.217,7.638-1.826,11.585-1.826
			c4.447,0,8.499,0.674,12.149,2.016c3.652,1.344,6.799,3.191,9.443,5.541c2.645,2.35,4.701,5.162,6.172,8.434
			c1.467,3.275,2.202,6.846,2.202,10.703c0,2.855-0.799,5.037-2.392,6.547c-1.596,1.512-3.821,2.479-6.674,2.896l-31.101,4.66
			c0.923,2.768,2.812,4.848,5.667,6.232c2.852,1.385,6.126,2.076,9.822,2.076c3.44,0,6.692-0.439,9.757-1.322
			c3.063-0.881,5.561-1.908,7.492-3.082c1.342,0.838,2.475,2.014,3.399,3.523c0.924,1.512,1.386,3.107,1.386,4.785
			c0,3.777-1.764,6.59-5.289,8.436c-2.688,1.428-5.709,2.393-9.065,2.896C445.433,387.281,442.284,387.533,439.347,387.533z
			 M435.822,338.052c-2.015,0-3.758,0.336-5.227,1.006c-1.469,0.674-2.665,1.533-3.588,2.582c-0.925,1.051-1.616,2.225-2.077,3.525
			c-0.463,1.303-0.736,2.625-0.819,3.965l21.531-3.523c-0.252-1.68-1.176-3.357-2.77-5.037
			C441.277,338.892,438.926,338.052,435.822,338.052z"/>
		<path fill="#676767" d="M475.607,307.33c0-3.189,1.07-5.875,3.212-8.059c2.14-2.182,4.974-3.275,8.499-3.275
			c3.526,0,6.359,1.094,8.499,3.275c2.14,2.184,3.212,4.869,3.212,8.059c0,3.191-1.072,5.877-3.212,8.059
			c-2.14,2.184-4.973,3.271-8.499,3.271c-3.525,0-6.359-1.088-8.499-3.271C476.678,313.207,475.607,310.521,475.607,307.33z
			 M498.02,385.394c-0.924,0.166-2.287,0.396-4.091,0.691c-1.807,0.293-3.631,0.441-5.477,0.441c-1.848,0-3.506-0.127-4.975-0.379
			s-2.707-0.754-3.714-1.51s-1.784-1.783-2.329-3.084c-0.547-1.301-0.819-3-0.819-5.1v-51.246c0.924-0.168,2.286-0.398,4.093-0.691
			c1.804-0.295,3.63-0.441,5.477-0.441c1.845,0,3.505,0.125,4.974,0.377s2.707,0.756,3.716,1.512
			c1.006,0.754,1.782,1.783,2.328,3.084c0.545,1.303,0.817,3.004,0.817,5.1V385.394z"/>
		<path fill="#676767" d="M563.242,367.263c0,6.379-2.392,11.375-7.177,14.982c-4.785,3.609-11.836,5.414-21.153,5.414
			c-3.525,0-6.8-0.252-9.82-0.754c-3.022-0.506-5.604-1.281-7.745-2.332c-2.14-1.047-3.819-2.369-5.035-3.965
			c-1.219-1.594-1.825-3.48-1.825-5.666c0-2.016,0.419-3.715,1.259-5.1c0.839-1.385,1.846-2.537,3.021-3.463
			c2.436,1.344,5.226,2.541,8.374,3.588c3.148,1.051,6.777,1.574,10.892,1.574c2.601,0,4.595-0.377,5.98-1.133
			c1.385-0.754,2.078-1.764,2.078-3.021c0-1.174-0.504-2.098-1.512-2.77c-1.007-0.672-2.688-1.217-5.036-1.637l-3.776-0.756
			c-7.305-1.426-12.741-3.67-16.307-6.736c-3.569-3.063-5.352-7.447-5.352-13.158c0-3.105,0.672-5.916,2.015-8.436
			c1.342-2.518,3.23-4.615,5.666-6.297c2.435-1.678,5.352-2.979,8.752-3.902c3.398-0.922,7.153-1.385,11.268-1.385
			c3.104,0,6.023,0.232,8.751,0.693s5.101,1.154,7.114,2.076c2.016,0.926,3.608,2.121,4.784,3.59s1.764,3.209,1.764,5.225
			c0,1.932-0.358,3.588-1.07,4.975c-0.715,1.385-1.617,2.539-2.708,3.461c-0.672-0.42-1.679-0.859-3.021-1.322
			c-1.343-0.461-2.813-0.881-4.406-1.26c-1.596-0.375-3.212-0.691-4.848-0.943c-1.638-0.252-3.129-0.379-4.47-0.379
			c-2.77,0-4.911,0.316-6.423,0.947c-1.509,0.629-2.266,1.615-2.266,2.957c0,0.924,0.419,1.682,1.26,2.268
			c0.837,0.588,2.434,1.133,4.785,1.635l3.902,0.883c8.059,1.848,13.787,4.387,17.188,7.617
			C561.543,357.966,563.242,362.144,563.242,367.263z"/>
		<path fill="#676767" d="M606.553,387.533c-4.952,0-9.55-0.689-13.787-2.076c-4.24-1.385-7.932-3.463-11.08-6.232
			c-3.146-2.77-5.624-6.252-7.429-10.451c-1.806-4.195-2.707-9.107-2.707-14.73c0-5.539,0.901-10.303,2.707-14.293
			c1.805-3.984,4.175-7.26,7.113-9.818c2.938-2.561,6.297-4.449,10.074-5.668c3.776-1.217,7.636-1.826,11.583-1.826
			c4.449,0,8.5,0.674,12.15,2.016c3.651,1.344,6.8,3.191,9.444,5.541c2.644,2.35,4.698,5.162,6.168,8.434
			c1.468,3.275,2.204,6.846,2.204,10.703c0,2.855-0.799,5.037-2.393,6.547c-1.595,1.512-3.819,2.479-6.673,2.896l-31.1,4.66
			c0.922,2.768,2.812,4.848,5.665,6.232s6.127,2.076,9.821,2.076c3.441,0,6.692-0.439,9.759-1.322
			c3.063-0.881,5.56-1.908,7.491-3.082c1.342,0.838,2.476,2.014,3.399,3.523c0.923,1.512,1.385,3.107,1.385,4.785
			c0,3.777-1.762,6.59-5.288,8.436c-2.688,1.428-5.71,2.393-9.065,2.896C612.639,387.281,609.489,387.533,606.553,387.533z
			 M603.027,338.052c-2.014,0-3.758,0.336-5.226,1.006c-1.47,0.674-2.666,1.533-3.588,2.582c-0.925,1.051-1.617,2.225-2.077,3.525
			c-0.462,1.303-0.736,2.625-0.819,3.965l21.532-3.523c-0.253-1.68-1.178-3.357-2.771-5.037
			C608.482,338.892,606.132,338.052,603.027,338.052z"/>
		<path fill="#676767" d="M682.1,346.74c0-2.602-0.736-4.512-2.204-5.73c-1.47-1.215-3.463-1.824-5.98-1.824
			c-1.681,0-3.337,0.209-4.974,0.629s-3.044,1.051-4.218,1.889v43.691c-0.841,0.252-2.162,0.502-3.967,0.754
			c-1.806,0.252-3.673,0.379-5.604,0.379c-1.847,0-3.506-0.127-4.973-0.379c-1.47-0.252-2.707-0.754-3.714-1.51
			c-1.008-0.756-1.784-1.783-2.33-3.084s-0.818-3-0.818-5.1v-37.773c0-2.266,0.481-4.111,1.448-5.541
			c0.964-1.426,2.286-2.727,3.966-3.902c2.854-2.014,6.441-3.652,10.766-4.91c4.322-1.26,9.128-1.891,14.417-1.891
			c9.483,0,16.788,2.08,21.908,6.234c5.119,4.154,7.681,9.928,7.681,17.313v39.41c-0.84,0.252-2.161,0.502-3.967,0.754
			s-3.672,0.379-5.603,0.379c-1.847,0-3.506-0.127-4.974-0.379c-1.47-0.252-2.707-0.754-3.714-1.51
			c-1.008-0.756-1.785-1.783-2.33-3.084c-0.547-1.301-0.817-3-0.817-5.1V346.74z"/>
	</g>
	<g>
		<linearGradient id="SVGID_4_" gradientUnits="userSpaceOnUse" x1="722.7656" y1="180.9229" x2="756.6548" y2="147.0337">
			<stop  offset="0" style="stop-color:#F36F21"/>
			<stop  offset="0.3025" style="stop-color:#F26522"/>
			<stop  offset="0.8478" style="stop-color:#EF4823"/>
			<stop  offset="1" style="stop-color:#EF3D23"/>
		</linearGradient>
		<path fill-rule="evenodd" clip-rule="evenodd" fill="url(#SVGID_4_)" d="M728.304,186.461h8.435
			c0.913-21,5.182-37.55,10.324-49.02C736.185,145.957,729.119,163.461,728.304,186.461z"/>
		<linearGradient id="SVGID_5_" gradientUnits="userSpaceOnUse" x1="740.4863" y1="179.9653" x2="771.5042" y2="148.9475">
			<stop  offset="0" style="stop-color:#F36F21"/>
			<stop  offset="0.3025" style="stop-color:#F26522"/>
			<stop  offset="0.8478" style="stop-color:#EF4823"/>
			<stop  offset="1" style="stop-color:#EF3D23"/>
		</linearGradient>
		<path fill-rule="evenodd" clip-rule="evenodd" fill="url(#SVGID_5_)" d="M759,186.461v-50.018
			c-5.535,9.784-10.945,27.018-12.018,50.018H759z"/>
		<linearGradient id="SVGID_6_" gradientUnits="userSpaceOnUse" x1="761.8799" y1="83.9761" x2="772.4438" y2="73.4122">
			<stop  offset="0" style="stop-color:#F36F21"/>
			<stop  offset="0.3025" style="stop-color:#F26522"/>
			<stop  offset="0.8478" style="stop-color:#EF4823"/>
			<stop  offset="1" style="stop-color:#EF3D23"/>
		</linearGradient>
		<path fill-rule="evenodd" clip-rule="evenodd" fill="url(#SVGID_6_)" d="M767.162,71.208c-4.465,0-8.479,5.254-9.797,8.254h19.593
			C775.64,76.461,771.626,71.208,767.162,71.208z"/>
		<linearGradient id="SVGID_7_" gradientUnits="userSpaceOnUse" x1="757.751" y1="108.2124" x2="777.251" y2="88.7124">
			<stop  offset="0" style="stop-color:#F36F21"/>
			<stop  offset="0.3025" style="stop-color:#F26522"/>
			<stop  offset="0.8478" style="stop-color:#EF4823"/>
			<stop  offset="1" style="stop-color:#EF3D23"/>
		</linearGradient>
		<rect x="757" y="89.461" fill-rule="evenodd" clip-rule="evenodd" fill="url(#SVGID_7_)" width="21" height="18"/>
		<linearGradient id="SVGID_8_" gradientUnits="userSpaceOnUse" x1="705.2021" y1="182.959" x2="736.9482" y2="151.2129">
			<stop  offset="0" style="stop-color:#F36F21"/>
			<stop  offset="0.3025" style="stop-color:#F26522"/>
			<stop  offset="0.8478" style="stop-color:#EF4823"/>
			<stop  offset="1" style="stop-color:#EF3D23"/>
		</linearGradient>
		<path fill-rule="evenodd" clip-rule="evenodd" fill="url(#SVGID_8_)" d="M708.705,186.461h9.357
			c0.579-17,4.516-32.058,10.978-43.157C714.205,154.906,711.148,169.461,708.705,186.461z"/>
		<linearGradient id="SVGID_9_" gradientUnits="userSpaceOnUse" x1="759.6084" y1="177.0698" x2="785.5308" y2="151.1475">
			<stop  offset="0" style="stop-color:#F36F21"/>
			<stop  offset="0.3025" style="stop-color:#F26522"/>
			<stop  offset="0.8478" style="stop-color:#EF4823"/>
			<stop  offset="1" style="stop-color:#EF3D23"/>
		</linearGradient>
		<path fill-rule="evenodd" clip-rule="evenodd" fill="url(#SVGID_9_)" d="M769,135.461v51h13.433c-1.107-24-6.858-41-12.588-51H769
			z"/>
		<linearGradient id="SVGID_10_" gradientUnits="userSpaceOnUse" x1="799.0889" y1="174.4551" x2="816.9765" y2="156.5674">
			<stop  offset="0" style="stop-color:#F36F21"/>
			<stop  offset="0.3025" style="stop-color:#F26522"/>
			<stop  offset="0.8478" style="stop-color:#EF4823"/>
			<stop  offset="1" style="stop-color:#EF3D23"/>
		</linearGradient>
		<path fill-rule="evenodd" clip-rule="evenodd" fill="url(#SVGID_10_)" d="M797.642,139.434
			c7.923,11.413,12.805,28.028,13.454,47.028h12.455C820.828,167.461,817.325,151.737,797.642,139.434z"/>
		<linearGradient id="SVGID_11_" gradientUnits="userSpaceOnUse" x1="665.25" y1="247.7114" x2="877.75" y2="35.2114">
			<stop  offset="0" style="stop-color:#F36F21"/>
			<stop  offset="0.3025" style="stop-color:#F26522"/>
			<stop  offset="0.8478" style="stop-color:#EF4823"/>
			<stop  offset="1" style="stop-color:#EF3D23"/>
		</linearGradient>
		<path fill-rule="evenodd" clip-rule="evenodd" fill="url(#SVGID_11_)" d="M665,35.461v169h173.297c3.313,0,6,2.687,6,6
			c0,3.313-2.687,6-6,6H665v31h213v-212H665z M746.297,89.461c-2.762,0-5-2.239-5-5s2.238-5,5-5h1.826
			c1.1-7,7.573-15.06,15.877-16.796v-9.35c0-2.485,2.015-4.5,4.5-4.5s4.5,2.015,4.5,4.5v10.149
			c6.99,2.739,12.221,9.997,13.199,15.997h1.098c2.762,0,5,2.239,5,5s-2.238,5-5,5H787v18h0.297c2.762,0,5,2.239,5,5s-2.238,5-5,5
			h-41c-2.762,0-5-2.239-5-5s2.238-5,5-5H748v-18H746.297z M833.297,198.461h-133c-3.313,0-6-2.648-6-5.961
			c0-2.623,1.686-4.828,4.031-5.643c3.277-23.985,7.428-44.946,39.021-60.577c-0.03-0.247-0.052-0.53-0.052-0.785
			c0-3.313,2.687-6.034,6-6.034h47c3.313,0,6,2.725,6,6.039c0,0.471-0.06,0.947-0.162,1.387
			c30.343,15.496,34.523,36.128,37.752,59.671c3.036,0.296,5.41,2.822,5.41,5.937C839.297,195.809,836.61,198.461,833.297,198.461z"
			/>
		<linearGradient id="SVGID_12_" gradientUnits="userSpaceOnUse" x1="780.0244" y1="173.8096" x2="799.3937" y2="154.4403">
			<stop  offset="0" style="stop-color:#F36F21"/>
			<stop  offset="0.3025" style="stop-color:#F26522"/>
			<stop  offset="0.8478" style="stop-color:#EF4823"/>
			<stop  offset="1" style="stop-color:#EF3D23"/>
		</linearGradient>
		<path fill-rule="evenodd" clip-rule="evenodd" fill="url(#SVGID_12_)" d="M782.539,137.811c5.057,11.474,9.232,27.65,10.137,48.65
			h8.179C800.05,164.461,793.162,146.458,782.539,137.811z"/>
	</g>
	<g>
		<linearGradient id="SVGID_13_" gradientUnits="userSpaceOnUse" x1="22.251" y1="247.7124" x2="234.751" y2="35.2124">
			<stop  offset="0" style="stop-color:#2CA0DA"/>
			<stop  offset="0.206" style="stop-color:#3BACD4"/>
			<stop  offset="0.4687" style="stop-color:#47B8CF"/>
			<stop  offset="0.7331" style="stop-color:#4DC0CC"/>
			<stop  offset="1" style="stop-color:#4EC4CC"/>
		</linearGradient>
		<path fill-rule="evenodd" clip-rule="evenodd" fill="url(#SVGID_13_)" d="M56.001,216.315c-3.18,0-6.001-2.558-6.001-5.711v-0.577
			c0-3.154,2.873-5.565,6.053-5.565H121V163.37l-31.193-48.956c-1.314-2.062-0.7-4.798,1.362-6.112
			c2.06-1.314,4.796-0.709,6.11,1.352l5.84,9.166c0.523-0.222,1.098-0.352,1.699-0.356l7.381-0.055l-9.122-15.618
			c-7.121,0.022-13.802,0.021-19.251,0.021c-2.445,0-4.426-2.007-4.426-4.452s1.98-4.478,4.426-4.478
			c4.107,0,8.917-0.151,14.086-0.164L80.379,63.461H57.475c-2.445,0-4.427-1.555-4.427-4s1.981-4,4.427-4H82.92
			c1.573,0,3.027,0.619,3.822,1.977l21.406,36.361c24.488-0.081,51.885-0.338,52.269-0.338c0,0,0.007,0,0.017,0
			c1.558,0,3.033,0.939,3.833,2.279c0.804,1.346,0.868,3.117,0.114,4.492L130,163.21v41.251h105v-169H22v212h213v-31.55
			L56.001,216.315z M152.33,60.503c10.34-5.907,22.652-5.258,34.664,1.833c10.58,6.245,14.695,20.91,13.197,31.538
			c-2.998,21.238-25.919,27.328-35.076,27.328c-0.406,0-0.784-0.012-1.135-0.034c-2.439-0.162-4.284-2.271-4.122-4.711
			c0.161-2.438,2.254-4.286,4.71-4.121c2.948,0.182,24.451-2.641,26.857-19.699c1.09-7.727-2.015-18.596-8.931-22.678
			c-9.288-5.484-18.202-6.095-25.774-1.769c-7.806,4.458-11.599,12.96-12.119,17.079c-0.349,2.757-1.98,4.426-4.426,4.427
			c-2.444,0-4.426-1.98-4.427-4.425C135.748,77.752,141.949,66.433,152.33,60.503z"/>
		<linearGradient id="SVGID_14_" gradientUnits="userSpaceOnUse" x1="114.4692" y1="142.7085" x2="134.824" y2="122.3538">
			<stop  offset="0" style="stop-color:#2CA0DA"/>
			<stop  offset="0.206" style="stop-color:#3BACD4"/>
			<stop  offset="0.4687" style="stop-color:#47B8CF"/>
			<stop  offset="0.7331" style="stop-color:#4DC0CC"/>
			<stop  offset="1" style="stop-color:#4EC4CC"/>
		</linearGradient>
		<path fill-rule="evenodd" clip-rule="evenodd" fill="url(#SVGID_14_)" d="M125.15,153.39l14.397-26.312l-11.985,0.084l1.51,2.586
			c1.234,2.11,0.523,4.82-1.588,6.054c-0.701,0.41-1.471,0.605-2.229,0.605c-1.521,0-3.002-0.785-3.827-2.194l-4.077-6.98
			l-8.832,0.062L125.15,153.39z"/>
		<linearGradient id="SVGID_15_" gradientUnits="userSpaceOnUse" x1="121.7036" y1="117.6387" x2="144.8477" y2="94.4946">
			<stop  offset="0" style="stop-color:#2CA0DA"/>
			<stop  offset="0.206" style="stop-color:#3BACD4"/>
			<stop  offset="0.4687" style="stop-color:#47B8CF"/>
			<stop  offset="0.7331" style="stop-color:#4DC0CC"/>
			<stop  offset="1" style="stop-color:#4EC4CC"/>
		</linearGradient>
		<path fill-rule="evenodd" clip-rule="evenodd" fill="url(#SVGID_15_)" d="M144.41,118.192l8.535-15.6
			c-8.895,0.047-24.421,0.124-39.635,0.179l9.1,15.574L144.41,118.192z"/>
	</g>
	<g>
		<path fill="#676767" d="M309.469,362.115c-0.569-0.891-1.096-2.07-1.583-3.531s-0.731-3.002-0.731-4.627
			c0-3.004,0.688-5.176,2.07-6.516c1.38-1.34,3.167-2.008,5.358-2.008h26.061c0.487,0.893,0.994,2.068,1.523,3.531
			c0.526,1.461,0.792,3.004,0.792,4.627c0,3.004-0.691,5.176-2.071,6.514c-1.381,1.342-3.166,2.01-5.358,2.01H309.469z"/>
	</g>
	<g>
		<path fill="#676767" d="M719.395,374.044c0-3.41,1.055-6.252,3.166-8.525c2.111-2.271,4.994-3.41,8.646-3.41
			c3.654,0,6.534,1.139,8.646,3.41c2.11,2.273,3.166,5.115,3.166,8.525c0,3.408-1.056,6.252-3.166,8.523
			c-2.112,2.271-4.992,3.41-8.646,3.41c-3.652,0-6.535-1.139-8.646-3.41S719.395,377.453,719.395,374.044z"/>
		<path fill="#676767" d="M748.256,354.316c0-5.359,0.811-10.006,2.437-13.945c1.623-3.936,3.875-7.203,6.758-9.803
			c2.881-2.596,6.251-4.525,10.108-5.783c3.854-1.26,8.016-1.889,12.481-1.889c1.624,0,3.207,0.143,4.75,0.426
			c1.541,0.287,2.802,0.631,3.774,1.035v-19.729c0.811-0.242,2.11-0.504,3.897-0.791c1.785-0.283,3.612-0.426,5.48-0.426
			c1.785,0,3.389,0.123,4.811,0.365c1.418,0.244,2.617,0.73,3.592,1.461c0.975,0.732,1.704,1.727,2.192,2.984
			c0.487,1.26,0.73,2.902,0.73,4.932v57.725c0,3.816-1.787,6.861-5.359,9.133c-2.354,1.543-5.399,2.904-9.132,4.078
			c-3.736,1.178-8.038,1.768-12.909,1.768c-5.278,0-10.007-0.732-14.188-2.193c-4.183-1.461-7.713-3.57-10.594-6.332
			c-2.883-2.76-5.076-6.068-6.576-9.924C749.006,363.55,748.256,359.187,748.256,354.316z M782.842,339.093
			c-4.385,0-7.755,1.26-10.108,3.775c-2.355,2.518-3.53,6.332-3.53,11.447c0,5.033,1.095,8.828,3.287,11.387
			c2.192,2.557,5.359,3.836,9.5,3.836c1.461,0,2.779-0.223,3.957-0.67c1.175-0.447,2.089-0.955,2.74-1.523v-26.791
			C787.063,339.58,785.112,339.093,782.842,339.093z"/>
		<path fill="#676767" d="M853.473,385.857c-4.791,0-9.235-0.67-13.334-2.01c-4.102-1.34-7.672-3.35-10.717-6.029
			c-3.044-2.678-5.44-6.047-7.185-10.107c-1.747-4.059-2.619-8.807-2.619-14.248c0-5.357,0.872-9.965,2.619-13.82
			c1.744-3.857,4.037-7.021,6.88-9.5c2.841-2.477,6.089-4.301,9.743-5.48c3.652-1.176,7.387-1.766,11.203-1.766
			c4.303,0,8.221,0.65,11.752,1.949s6.575,3.086,9.133,5.357c2.558,2.273,4.546,4.992,5.968,8.16
			c1.419,3.166,2.131,6.617,2.131,10.352c0,2.76-0.772,4.869-2.314,6.332c-1.543,1.461-3.695,2.395-6.454,2.801l-30.078,4.506
			c0.892,2.678,2.719,4.688,5.479,6.027s5.926,2.01,9.499,2.01c3.329,0,6.475-0.426,9.438-1.279
			c2.963-0.852,5.377-1.846,7.245-2.982c1.298,0.813,2.394,1.947,3.287,3.41c0.894,1.461,1.341,3.004,1.341,4.627
			c0,3.652-1.704,6.373-5.114,8.16c-2.6,1.381-5.522,2.313-8.769,2.799C859.359,385.613,856.313,385.857,853.473,385.857z
			 M850.063,337.998c-1.949,0-3.635,0.324-5.054,0.975c-1.421,0.65-2.578,1.48-3.472,2.496s-1.563,2.152-2.009,3.408
			c-0.447,1.26-0.711,2.539-0.791,3.838l20.823-3.41c-0.243-1.623-1.138-3.246-2.679-4.871
			C855.34,338.81,853.065,337.998,850.063,337.998z"/>
	</g>
	<g>
		<path fill="#676767" d="M91.896,323.996c0.838-0.252,2.16-0.504,3.967-0.756c1.804-0.252,3.67-0.377,5.603-0.377
			c1.846,0,3.503,0.125,4.974,0.377c1.467,0.252,2.707,0.756,3.715,1.512c1.006,0.756,1.781,1.785,2.328,3.084
			c0.545,1.301,0.819,3.002,0.819,5.1v27.07c0,3.443,0.838,5.898,2.519,7.367c1.678,1.469,4.111,2.201,7.302,2.201
			c1.931,0,3.505-0.166,4.723-0.502c1.215-0.334,2.159-0.672,2.833-1.008v-44.068c0.837-0.252,2.159-0.504,3.965-0.756
			c1.805-0.252,3.672-0.377,5.604-0.377c1.845,0,3.504,0.125,4.974,0.377c1.468,0.252,2.707,0.756,3.715,1.512
			c1.007,0.756,1.782,1.785,2.329,3.084c0.545,1.301,0.818,3.002,0.818,5.1v38.277c0,4.199-1.763,7.346-5.288,9.443
			c-2.939,1.848-6.443,3.254-10.515,4.217c-4.072,0.965-8.498,1.449-13.283,1.449c-4.532,0-8.709-0.504-12.527-1.512
			c-3.821-1.006-7.115-2.559-9.885-4.658c-2.771-2.098-4.91-4.805-6.422-8.121c-1.511-3.314-2.266-7.322-2.266-12.025V323.996z"/>
		<path fill="#676767" d="M165.427,302.339c0.838-0.254,2.183-0.523,4.029-0.818c1.845-0.293,3.734-0.441,5.666-0.441
			c1.845,0,3.504,0.127,4.974,0.377c1.467,0.252,2.707,0.756,3.714,1.512s1.763,1.783,2.267,3.084
			c0.504,1.303,0.756,3.004,0.756,5.1v12.34c2.098-0.838,4.092-1.426,5.98-1.764c1.889-0.334,3.966-0.502,6.232-0.502
			c4.029,0,7.848,0.713,11.458,2.139c3.608,1.43,6.799,3.506,9.569,6.234c2.77,2.729,4.951,6.107,6.547,10.135
			c1.594,4.029,2.393,8.688,2.393,13.977c0,5.457-0.818,10.221-2.455,14.291c-1.637,4.072-3.926,7.451-6.862,10.137
			c-2.938,2.686-6.528,4.721-10.766,6.105c-4.239,1.385-8.92,2.078-14.038,2.078c-5.541,0-10.243-0.652-14.104-1.953
			c-3.86-1.299-7.135-2.914-9.82-4.846c-3.695-2.602-5.54-5.961-5.54-10.074V302.339z M194.891,369.449
			c3.859,0,6.861-1.322,9.002-3.967s3.211-6.566,3.211-11.771c0-5.289-1.092-9.232-3.274-11.836
			c-2.184-2.602-5.12-3.902-8.813-3.902c-1.68,0-3.128,0.168-4.344,0.504c-1.219,0.336-2.54,0.84-3.967,1.51v27.449
			c0.923,0.588,2.035,1.07,3.337,1.447C191.344,369.261,192.959,369.449,194.891,369.449z"/>
		<path fill="#676767" d="M264.896,321.226c4.532,0,8.666,0.461,12.402,1.385c3.733,0.924,6.924,2.328,9.568,4.217
			s4.679,4.281,6.107,7.178c1.426,2.896,2.141,6.316,2.141,10.26v28.205c0,2.186-0.61,3.967-1.826,5.352
			c-1.218,1.385-2.666,2.582-4.344,3.588c-5.458,3.275-13.139,4.912-23.042,4.912c-4.45,0-8.457-0.422-12.024-1.26
			c-3.569-0.838-6.633-2.098-9.191-3.777c-2.562-1.678-4.533-3.818-5.918-6.422c-1.385-2.6-2.078-5.623-2.078-9.064
			c0-5.793,1.72-10.24,5.162-13.348c3.441-3.104,8.771-5.035,15.991-5.791l16.495-1.764v-0.881c0-2.434-1.07-4.176-3.211-5.225
			c-2.141-1.051-5.226-1.574-9.255-1.574c-3.19,0-6.296,0.336-9.317,1.008s-5.75,1.51-8.185,2.518
			c-1.092-0.756-2.015-1.908-2.77-3.463c-0.755-1.551-1.134-3.168-1.134-4.848c0-2.182,0.523-3.922,1.574-5.227
			c1.049-1.299,2.664-2.41,4.848-3.334c2.434-0.924,5.309-1.594,8.625-2.016C258.83,321.435,261.957,321.226,264.896,321.226z
			 M265.903,370.708c1.426,0,3.001-0.146,4.722-0.441c1.721-0.293,3-0.693,3.84-1.195v-10.074l-9.065,0.756
			c-2.351,0.17-4.28,0.674-5.792,1.512c-1.511,0.84-2.266,2.1-2.266,3.777c0,1.68,0.648,3.043,1.951,4.092
			C260.593,370.185,262.797,370.708,265.903,370.708z"/>
	</g>
	<path fill="#676767" d="M81.27,373.495c-0.411,4.21-1.537,7.436-3.382,9.673c-1.846,2.237-4.531,3.359-8.056,3.359
		c-2.626,0-4.962-0.696-7.011-2.083c-2.05-1.388-4.264-3.739-6.641-7.054l-12.177-16.661v24.454
		c-0.903,0.179-2.235,0.424-3.998,0.738c-1.764,0.313-3.547,0.471-5.35,0.471c-1.805,0-3.425-0.134-4.858-0.403
		c-1.436-0.268-2.644-0.806-3.628-1.613c-0.985-0.805-1.743-1.902-2.275-3.29c-0.534-1.389-0.799-3.202-0.799-5.442v-77.795
		c0.902-0.268,2.232-0.558,3.997-0.873c1.763-0.313,3.546-0.47,5.35-0.47c1.802,0,3.422,0.135,4.858,0.403
		c1.435,0.269,2.646,0.806,3.629,1.612c0.984,0.806,1.741,1.903,2.275,3.291c0.533,1.391,0.799,3.204,0.799,5.441v35.474
		l21.154-23.649c4.264,0,7.688,1.031,10.271,3.09c2.583,2.062,3.874,4.658,3.874,7.794c0,1.343-0.206,2.576-0.614,3.694
		c-0.412,1.121-1.046,2.264-1.907,3.425c-0.861,1.166-1.968,2.397-3.321,3.696s-2.933,2.801-4.735,4.501l-7.134,6.718L81.27,373.495
		z"/>
</g>
</svg>
