<svg xmlns="http://www.w3.org/2000/svg" width="900" height="423.077"><linearGradient id="a" gradientUnits="userSpaceOnUse" x1="449.983" y1="248.483" x2="663.957" y2="34.508"><stop offset="0" stop-color="#f47621"/><stop offset=".154" stop-color="#f38920"/><stop offset=".414" stop-color="#f4a41f"/><stop offset=".65" stop-color="#f6b91b"/><stop offset=".854" stop-color="#f6c618"/><stop offset="1" stop-color="#f7ca16"/></linearGradient><path fill-rule="evenodd" clip-rule="evenodd" fill="url(#a)" d="M449.073 204.37l23.421-.127c4.129-11.145 10.768-22.419 15.779-33.314l40.078-83.036c2.627-5.259 4.885-12.896 10.02-15.402 7.637.5 9.52 9.392 12.521 15.152 2.756 5.01 7.893 13.652 10.023 18.662 3.752 8.893-5.391 15.282-11.4 3.883-2.883-5.386-6.51-14.653-10.018-18.412-8.393 15.781-55.609 118.854-61.119 123.361-6.516 2.133-20.92.877-28.805.877l-.501 31.561h215.792l-.623-31.561c-38.455.256-27.555 6.391-49.725-37.196-4.885-9.769-9.895-19.163-14.902-28.556-3.383-6.386-12.275-22.92-14.279-29.179-3.758 3.257-17.033 32.437-19.035 36.696-10.523 21.417-16.41-6.761-24.426-15.905-5.885 11.771-10.645 27.175-18.662 22.292-6.76-4.136 5.889-22.92 11.65-34.69 9.143-18.913 17.91 9.142 23.42 16.784 7.643-8.769 15.779-40.706 25.674-44.464 5.889-.5 13.025 16.78 16.156 23.546 4.385 9.142 8.77 16.784 13.404 25.926 4.633 9.019 8.641 17.156 13.15 26.048 3.754 7.641 11.27 19.789 13.396 26.928l24.801.127V35.417h-215.79V204.37z"/><linearGradient id="b" gradientUnits="userSpaceOnUse" x1="246.024" y1="215.736" x2="437.708" y2="24.052"><stop offset="0" stop-color="#214e25"/><stop offset=".056" stop-color="#30622e"/><stop offset=".124" stop-color="#3f7736"/><stop offset=".202" stop-color="#4c893c"/><stop offset=".292" stop-color="#569840"/><stop offset=".405" stop-color="#5da243"/><stop offset=".562" stop-color="#61aa44"/><stop offset="1" stop-color="#63ac45"/></linearGradient><path fill-rule="evenodd" clip-rule="evenodd" fill="url(#b)" d="M234.658 204.37h67.253c10.269 0 13.401 1.625 19.666-4.135 22.792-20.538 11.647-61.744 5.758-69.386-10.271 12.15-7.138 25.551-12.272 38.449-9.016 2.507-10.898-2.877-13.902-10.144-2.381-6.259-3.381-13.652-6.135-19.286l-14.902 28.056c-8.268.624-8.648-2.63-11.525-9.02-2.128-4.884-4.258-10.269-5.51-15.654-5.135-24.424 7.517-41.206 30.436-49.467 20.663-7.392 24.171-1.506 30.932-10.399 22.546-29.805 65.502-24.921 83.914-.625 4.383 5.635 15.152 20.914 8.892 28.679-6.136 4.009-17.786-13.151-34.818-14.401-6.888-.502-16.906 1.501-18.288 6.766-.498 1.876 14.284 40.324 17.037 56.984 3.256 20.413.125 26.422-4.76 43.332l72.642.252V35.417H234.658V204.37z"/><linearGradient id="c" gradientUnits="userSpaceOnUse" x1="234.658" y1="161.055" x2="449.574" y2="161.055"><stop offset="0" stop-color="#214e25"/><stop offset=".056" stop-color="#30622e"/><stop offset=".124" stop-color="#3f7736"/><stop offset=".202" stop-color="#4c893c"/><stop offset=".292" stop-color="#569840"/><stop offset=".405" stop-color="#5da243"/><stop offset=".562" stop-color="#61aa44"/><stop offset="1" stop-color="#63ac45"/></linearGradient><path fill-rule="evenodd" clip-rule="evenodd" fill="url(#c)" d="M234.783 216.013l-.125 31.438 214.415.122.501-31.561c-14.908.125-29.811 0-44.714 0-53.476 0-46.091 3.008-37.948-21.289 15.779-47.717-27.93-83.287-9.017-101.072 11.395-10.77 26.177-7.387 40.705-3.882l-6.14-6.887c-16.029-11.52-43.459-12.776-58.486 6.887-12.025 15.532-1.877 6.014-27.805 12.4-41.205 10.269-34.193 39.328-28.555 45.84 2.127-6.386 10.645-20.168 14.777-23.546 12.527-10.019 13.151 10.645 16.535 18.535 1-10.022 13.522-31.313 24.797-26.177 3.883 2.002 6.891 14.654 8.262 19.666 6.516 23.922 8.896 48.592-7.512 67.255-14.651 16.527-19.662 12.27-44.213 12.27-18.405.001-37.072-.374-55.477.001z"/><g fill="#676767"><path d="M379.036 385.394c-.841.252-2.163.502-3.966.754a40.52 40.52 0 0 1-5.604.379c-1.848 0-3.506-.127-4.974-.379-1.47-.252-2.707-.754-3.714-1.51s-1.785-1.783-2.33-3.084c-.547-1.301-.818-3-.818-5.1v-37.773c0-1.932.356-3.588 1.069-4.973.713-1.387 1.742-2.623 3.086-3.715 1.341-1.092 3-2.078 4.973-2.959a51.705 51.705 0 0 1 6.359-2.33 53.919 53.919 0 0 1 7.051-1.574 47.62 47.62 0 0 1 7.302-.566c4.029 0 7.218.777 9.569 2.33 2.35 1.555 3.525 4.09 3.525 7.617 0 1.176-.169 2.33-.503 3.463a15.874 15.874 0 0 1-1.259 3.084c-1.764 0-3.569.086-5.414.254-1.848.168-3.652.42-5.415.754-1.763.336-3.421.693-4.974 1.07-1.555.377-2.877.818-3.966 1.32v42.938zM439.347 387.533c-4.954 0-9.549-.689-13.788-2.076-4.238-1.385-7.932-3.463-11.079-6.232-3.148-2.77-5.625-6.252-7.43-10.451-1.805-4.195-2.707-9.107-2.707-14.73 0-5.539.902-10.303 2.707-14.293 1.805-3.984 4.176-7.26 7.115-9.818 2.937-2.561 6.295-4.449 10.072-5.668a37.547 37.547 0 0 1 11.585-1.826c4.447 0 8.499.674 12.149 2.016 3.652 1.344 6.799 3.191 9.443 5.541 2.645 2.35 4.701 5.162 6.172 8.434 1.467 3.275 2.202 6.846 2.202 10.703 0 2.855-.799 5.037-2.392 6.547-1.596 1.512-3.821 2.479-6.674 2.896l-31.101 4.66c.923 2.768 2.812 4.848 5.667 6.232 2.852 1.385 6.126 2.076 9.822 2.076 3.44 0 6.692-.439 9.757-1.322 3.063-.881 5.561-1.908 7.492-3.082 1.342.838 2.475 2.014 3.399 3.523.924 1.512 1.386 3.107 1.386 4.785 0 3.777-1.764 6.59-5.289 8.436-2.688 1.428-5.709 2.393-9.065 2.896-3.357.501-6.506.753-9.443.753zm-3.525-49.481c-2.015 0-3.758.336-5.227 1.006-1.469.674-2.665 1.533-3.588 2.582a10.703 10.703 0 0 0-2.077 3.525 14.463 14.463 0 0 0-.819 3.965l21.531-3.523c-.252-1.68-1.176-3.357-2.77-5.037-1.595-1.678-3.946-2.518-7.05-2.518zM475.607 307.33c0-3.189 1.07-5.875 3.212-8.059 2.14-2.182 4.974-3.275 8.499-3.275 3.526 0 6.359 1.094 8.499 3.275 2.14 2.184 3.212 4.869 3.212 8.059 0 3.191-1.072 5.877-3.212 8.059-2.14 2.184-4.973 3.271-8.499 3.271-3.525 0-6.359-1.088-8.499-3.271-2.141-2.182-3.212-4.868-3.212-8.059zm22.413 78.064c-.924.166-2.287.396-4.091.691a34.15 34.15 0 0 1-5.477.441c-1.848 0-3.506-.127-4.975-.379s-2.707-.754-3.714-1.51-1.784-1.783-2.329-3.084c-.547-1.301-.819-3-.819-5.1v-51.246c.924-.168 2.286-.398 4.093-.691a33.884 33.884 0 0 1 5.477-.441c1.845 0 3.505.125 4.974.377s2.707.756 3.716 1.512c1.006.754 1.782 1.783 2.328 3.084.545 1.303.817 3.004.817 5.1v51.246zM563.242 367.263c0 6.379-2.392 11.375-7.177 14.982-4.785 3.609-11.836 5.414-21.153 5.414-3.525 0-6.8-.252-9.82-.754-3.022-.506-5.604-1.281-7.745-2.332-2.14-1.047-3.819-2.369-5.035-3.965-1.219-1.594-1.825-3.48-1.825-5.666 0-2.016.419-3.715 1.259-5.1.839-1.385 1.846-2.537 3.021-3.463 2.436 1.344 5.226 2.541 8.374 3.588 3.148 1.051 6.777 1.574 10.892 1.574 2.601 0 4.595-.377 5.98-1.133 1.385-.754 2.078-1.764 2.078-3.021 0-1.174-.504-2.098-1.512-2.77-1.007-.672-2.688-1.217-5.036-1.637l-3.776-.756c-7.305-1.426-12.741-3.67-16.307-6.736-3.569-3.063-5.352-7.447-5.352-13.158 0-3.105.672-5.916 2.015-8.436 1.342-2.518 3.23-4.615 5.666-6.297 2.435-1.678 5.352-2.979 8.752-3.902 3.398-.922 7.153-1.385 11.268-1.385 3.104 0 6.023.232 8.751.693s5.101 1.154 7.114 2.076c2.016.926 3.608 2.121 4.784 3.59s1.764 3.209 1.764 5.225c0 1.932-.358 3.588-1.07 4.975-.715 1.385-1.617 2.539-2.708 3.461-.672-.42-1.679-.859-3.021-1.322a47.401 47.401 0 0 0-4.406-1.26 63.36 63.36 0 0 0-4.848-.943c-1.638-.252-3.129-.379-4.47-.379-2.77 0-4.911.316-6.423.947-1.509.629-2.266 1.615-2.266 2.957 0 .924.419 1.682 1.26 2.268.837.588 2.434 1.133 4.785 1.635l3.902.883c8.059 1.848 13.787 4.387 17.188 7.617 3.398 3.233 5.097 7.411 5.097 12.53zM606.553 387.533c-4.952 0-9.55-.689-13.787-2.076-4.24-1.385-7.932-3.463-11.08-6.232-3.146-2.77-5.624-6.252-7.429-10.451-1.806-4.195-2.707-9.107-2.707-14.73 0-5.539.901-10.303 2.707-14.293 1.805-3.984 4.175-7.26 7.113-9.818 2.938-2.561 6.297-4.449 10.074-5.668a37.53 37.53 0 0 1 11.583-1.826c4.449 0 8.5.674 12.15 2.016 3.651 1.344 6.8 3.191 9.444 5.541 2.644 2.35 4.698 5.162 6.168 8.434 1.468 3.275 2.204 6.846 2.204 10.703 0 2.855-.799 5.037-2.393 6.547-1.595 1.512-3.819 2.479-6.673 2.896l-31.1 4.66c.922 2.768 2.812 4.848 5.665 6.232s6.127 2.076 9.821 2.076c3.441 0 6.692-.439 9.759-1.322 3.063-.881 5.56-1.908 7.491-3.082 1.342.838 2.476 2.014 3.399 3.523.923 1.512 1.385 3.107 1.385 4.785 0 3.777-1.762 6.59-5.288 8.436-2.688 1.428-5.71 2.393-9.065 2.896-3.355.501-6.505.753-9.441.753zm-3.526-49.481c-2.014 0-3.758.336-5.226 1.006-1.47.674-2.666 1.533-3.588 2.582a10.686 10.686 0 0 0-2.077 3.525 14.5 14.5 0 0 0-.819 3.965l21.532-3.523c-.253-1.68-1.178-3.357-2.771-5.037-1.596-1.678-3.946-2.518-7.051-2.518zM682.1 346.74c0-2.602-.736-4.512-2.204-5.73-1.47-1.215-3.463-1.824-5.98-1.824-1.681 0-3.337.209-4.974.629s-3.044 1.051-4.218 1.889v43.691c-.841.252-2.162.502-3.967.754a40.509 40.509 0 0 1-5.604.379c-1.847 0-3.506-.127-4.973-.379-1.47-.252-2.707-.754-3.714-1.51-1.008-.756-1.784-1.783-2.33-3.084s-.818-3-.818-5.1v-37.773c0-2.266.481-4.111 1.448-5.541.964-1.426 2.286-2.727 3.966-3.902 2.854-2.014 6.441-3.652 10.766-4.91 4.322-1.26 9.128-1.891 14.417-1.891 9.483 0 16.788 2.08 21.908 6.234 5.119 4.154 7.681 9.928 7.681 17.313v39.41c-.84.252-2.161.502-3.967.754s-3.672.379-5.603.379c-1.847 0-3.506-.127-4.974-.379-1.47-.252-2.707-.754-3.714-1.51-1.008-.756-1.785-1.783-2.33-3.084-.547-1.301-.817-3-.817-5.1V346.74z"/></g><linearGradient id="d" gradientUnits="userSpaceOnUse" x1="722.766" y1="180.923" x2="756.655" y2="147.034"><stop offset="0" stop-color="#f36f21"/><stop offset=".302" stop-color="#f26522"/><stop offset=".848" stop-color="#ef4823"/><stop offset="1" stop-color="#ef3d23"/></linearGradient><path fill-rule="evenodd" clip-rule="evenodd" fill="url(#d)" d="M728.304 186.461h8.435c.913-21 5.182-37.55 10.324-49.02-10.878 8.516-17.944 26.02-18.759 49.02z"/><linearGradient id="e" gradientUnits="userSpaceOnUse" x1="740.486" y1="179.965" x2="771.504" y2="148.947"><stop offset="0" stop-color="#f36f21"/><stop offset=".302" stop-color="#f26522"/><stop offset=".848" stop-color="#ef4823"/><stop offset="1" stop-color="#ef3d23"/></linearGradient><path fill-rule="evenodd" clip-rule="evenodd" fill="url(#e)" d="M759 186.461v-50.018c-5.535 9.784-10.945 27.018-12.018 50.018H759z"/><linearGradient id="f" gradientUnits="userSpaceOnUse" x1="761.88" y1="83.976" x2="772.444" y2="73.412"><stop offset="0" stop-color="#f36f21"/><stop offset=".302" stop-color="#f26522"/><stop offset=".848" stop-color="#ef4823"/><stop offset="1" stop-color="#ef3d23"/></linearGradient><path fill-rule="evenodd" clip-rule="evenodd" fill="url(#f)" d="M767.162 71.208c-4.465 0-8.479 5.254-9.797 8.254h19.593c-1.318-3.001-5.332-8.254-9.796-8.254z"/><linearGradient id="g" gradientUnits="userSpaceOnUse" x1="757.751" y1="108.212" x2="777.251" y2="88.712"><stop offset="0" stop-color="#f36f21"/><stop offset=".302" stop-color="#f26522"/><stop offset=".848" stop-color="#ef4823"/><stop offset="1" stop-color="#ef3d23"/></linearGradient><path fill-rule="evenodd" clip-rule="evenodd" fill="url(#g)" d="M757 89.461h21v18h-21z"/><linearGradient id="h" gradientUnits="userSpaceOnUse" x1="705.202" y1="182.959" x2="736.948" y2="151.213"><stop offset="0" stop-color="#f36f21"/><stop offset=".302" stop-color="#f26522"/><stop offset=".848" stop-color="#ef4823"/><stop offset="1" stop-color="#ef3d23"/></linearGradient><path fill-rule="evenodd" clip-rule="evenodd" fill="url(#h)" d="M708.705 186.461h9.357c.579-17 4.516-32.058 10.978-43.157-14.835 11.602-17.892 26.157-20.335 43.157z"/><linearGradient id="i" gradientUnits="userSpaceOnUse" x1="759.608" y1="177.07" x2="785.531" y2="151.148"><stop offset="0" stop-color="#f36f21"/><stop offset=".302" stop-color="#f26522"/><stop offset=".848" stop-color="#ef4823"/><stop offset="1" stop-color="#ef3d23"/></linearGradient><path fill-rule="evenodd" clip-rule="evenodd" fill="url(#i)" d="M769 135.461v51h13.433c-1.107-24-6.858-41-12.588-51H769z"/><linearGradient id="j" gradientUnits="userSpaceOnUse" x1="799.089" y1="174.455" x2="816.976" y2="156.567"><stop offset="0" stop-color="#f36f21"/><stop offset=".302" stop-color="#f26522"/><stop offset=".848" stop-color="#ef4823"/><stop offset="1" stop-color="#ef3d23"/></linearGradient><path fill-rule="evenodd" clip-rule="evenodd" fill="url(#j)" d="M797.642 139.434c7.923 11.413 12.805 28.028 13.454 47.028h12.455c-2.723-19.001-6.226-34.725-25.909-47.028z"/><linearGradient id="k" gradientUnits="userSpaceOnUse" x1="665.25" y1="247.711" x2="877.75" y2="35.211"><stop offset="0" stop-color="#f36f21"/><stop offset=".302" stop-color="#f26522"/><stop offset=".848" stop-color="#ef4823"/><stop offset="1" stop-color="#ef3d23"/></linearGradient><path fill-rule="evenodd" clip-rule="evenodd" fill="url(#k)" d="M665 35.461v169h173.297a6 6 0 0 1 0 12H665v31h213v-212H665zm81.297 54a5 5 0 1 1 0-10h1.826c1.1-7 7.573-15.06 15.877-16.796v-9.35a4.5 4.5 0 0 1 9 0v10.149c6.99 2.739 12.221 9.997 13.199 15.997h1.098a5 5 0 1 1 0 10H787v18h.297a5 5 0 1 1 0 10h-41a5 5 0 1 1 0-10H748v-18h-1.703zm87 109h-133c-3.313 0-6-2.648-6-5.961 0-2.623 1.686-4.828 4.031-5.643 3.277-23.985 7.428-44.946 39.021-60.577a6.778 6.778 0 0 1-.052-.785c0-3.313 2.687-6.034 6-6.034h47c3.313 0 6 2.725 6 6.039 0 .471-.06.947-.162 1.387 30.343 15.496 34.523 36.128 37.752 59.671 3.036.296 5.41 2.822 5.41 5.937 0 3.314-2.687 5.966-6 5.966z"/><linearGradient id="l" gradientUnits="userSpaceOnUse" x1="780.024" y1="173.81" x2="799.394" y2="154.44"><stop offset="0" stop-color="#f36f21"/><stop offset=".302" stop-color="#f26522"/><stop offset=".848" stop-color="#ef4823"/><stop offset="1" stop-color="#ef3d23"/></linearGradient><path fill-rule="evenodd" clip-rule="evenodd" fill="url(#l)" d="M782.539 137.811c5.057 11.474 9.232 27.65 10.137 48.65h8.179c-.805-22-7.693-40.003-18.316-48.65z"/><g><linearGradient id="m" gradientUnits="userSpaceOnUse" x1="22.251" y1="247.712" x2="234.751" y2="35.212"><stop offset="0" stop-color="#2ca0da"/><stop offset=".206" stop-color="#3bacd4"/><stop offset=".469" stop-color="#47b8cf"/><stop offset=".733" stop-color="#4dc0cc"/><stop offset="1" stop-color="#4ec4cc"/></linearGradient><path fill-rule="evenodd" clip-rule="evenodd" fill="url(#m)" d="M56.001 216.315c-3.18 0-6.001-2.558-6.001-5.711v-.577c0-3.154 2.873-5.565 6.053-5.565H121V163.37l-31.193-48.956a4.428 4.428 0 0 1 1.362-6.112 4.425 4.425 0 0 1 6.11 1.352l5.84 9.166a4.421 4.421 0 0 1 1.699-.356l7.381-.055-9.122-15.618c-7.121.022-13.802.021-19.251.021-2.445 0-4.426-2.007-4.426-4.452s1.98-4.478 4.426-4.478c4.107 0 8.917-.151 14.086-.164L80.379 63.461H57.475c-2.445 0-4.427-1.555-4.427-4s1.981-4 4.427-4H82.92c1.573 0 3.027.619 3.822 1.977l21.406 36.361c24.488-.081 51.885-.338 52.269-.338h.017c1.558 0 3.033.939 3.833 2.279.804 1.346.868 3.117.114 4.492L130 163.21v41.251h105v-169H22v212h213v-31.55l-178.999.404zM152.33 60.503c10.34-5.907 22.652-5.258 34.664 1.833 10.58 6.245 14.695 20.91 13.197 31.538-2.998 21.238-25.919 27.328-35.076 27.328-.406 0-.784-.012-1.135-.034a4.426 4.426 0 0 1-4.122-4.711 4.413 4.413 0 0 1 4.71-4.121c2.948.182 24.451-2.641 26.857-19.699 1.09-7.727-2.015-18.596-8.931-22.678-9.288-5.484-18.202-6.095-25.774-1.769-7.806 4.458-11.599 12.96-12.119 17.079-.349 2.757-1.98 4.426-4.426 4.427a4.427 4.427 0 0 1-4.427-4.425c0-7.519 6.201-18.838 16.582-24.768z"/><linearGradient id="n" gradientUnits="userSpaceOnUse" x1="114.469" y1="142.708" x2="134.824" y2="122.354"><stop offset="0" stop-color="#2ca0da"/><stop offset=".206" stop-color="#3bacd4"/><stop offset=".469" stop-color="#47b8cf"/><stop offset=".733" stop-color="#4dc0cc"/><stop offset="1" stop-color="#4ec4cc"/></linearGradient><path fill-rule="evenodd" clip-rule="evenodd" fill="url(#n)" d="M125.15 153.39l14.397-26.312-11.985.084 1.51 2.586a4.425 4.425 0 0 1-3.817 6.659 4.429 4.429 0 0 1-3.827-2.194l-4.077-6.98-8.832.062 16.631 26.095z"/><linearGradient id="o" gradientUnits="userSpaceOnUse" x1="121.704" y1="117.639" x2="144.848" y2="94.495"><stop offset="0" stop-color="#2ca0da"/><stop offset=".206" stop-color="#3bacd4"/><stop offset=".469" stop-color="#47b8cf"/><stop offset=".733" stop-color="#4dc0cc"/><stop offset="1" stop-color="#4ec4cc"/></linearGradient><path fill-rule="evenodd" clip-rule="evenodd" fill="url(#o)" d="M144.41 118.192l8.535-15.6c-8.895.047-24.421.124-39.635.179l9.1 15.574 22-.153z"/></g><g><path fill="#676767" d="M309.469 362.115c-.569-.891-1.096-2.07-1.583-3.531s-.731-3.002-.731-4.627c0-3.004.688-5.176 2.07-6.516 1.38-1.34 3.167-2.008 5.358-2.008h26.061c.487.893.994 2.068 1.523 3.531.526 1.461.792 3.004.792 4.627 0 3.004-.691 5.176-2.071 6.514-1.381 1.342-3.166 2.01-5.358 2.01h-26.061z"/></g><g fill="#676767"><path d="M719.395 374.044c0-3.41 1.055-6.252 3.166-8.525 2.111-2.271 4.994-3.41 8.646-3.41 3.654 0 6.534 1.139 8.646 3.41 2.11 2.273 3.166 5.115 3.166 8.525 0 3.408-1.056 6.252-3.166 8.523-2.112 2.271-4.992 3.41-8.646 3.41-3.652 0-6.535-1.139-8.646-3.41s-3.166-5.114-3.166-8.523zM748.256 354.316c0-5.359.811-10.006 2.437-13.945 1.623-3.936 3.875-7.203 6.758-9.803 2.881-2.596 6.251-4.525 10.108-5.783 3.854-1.26 8.016-1.889 12.481-1.889 1.624 0 3.207.143 4.75.426 1.541.287 2.802.631 3.774 1.035v-19.729c.811-.242 2.11-.504 3.897-.791a34.949 34.949 0 0 1 5.48-.426c1.785 0 3.389.123 4.811.365 1.418.244 2.617.73 3.592 1.461.975.732 1.704 1.727 2.192 2.984.487 1.26.73 2.902.73 4.932v57.725c0 3.816-1.787 6.861-5.359 9.133-2.354 1.543-5.399 2.904-9.132 4.078-3.736 1.178-8.038 1.768-12.909 1.768-5.278 0-10.007-.732-14.188-2.193-4.183-1.461-7.713-3.57-10.594-6.332-2.883-2.76-5.076-6.068-6.576-9.924-1.502-3.858-2.252-8.221-2.252-13.092zm34.586-15.223c-4.385 0-7.755 1.26-10.108 3.775-2.355 2.518-3.53 6.332-3.53 11.447 0 5.033 1.095 8.828 3.287 11.387 2.192 2.557 5.359 3.836 9.5 3.836 1.461 0 2.779-.223 3.957-.67 1.175-.447 2.089-.955 2.74-1.523v-26.791c-1.625-.974-3.576-1.461-5.846-1.461zM853.473 385.857c-4.791 0-9.235-.67-13.334-2.01-4.102-1.34-7.672-3.35-10.717-6.029-3.044-2.678-5.44-6.047-7.185-10.107-1.747-4.059-2.619-8.807-2.619-14.248 0-5.357.872-9.965 2.619-13.82 1.744-3.857 4.037-7.021 6.88-9.5 2.841-2.477 6.089-4.301 9.743-5.48a36.337 36.337 0 0 1 11.203-1.766c4.303 0 8.221.65 11.752 1.949s6.575 3.086 9.133 5.357c2.558 2.273 4.546 4.992 5.968 8.16 1.419 3.166 2.131 6.617 2.131 10.352 0 2.76-.772 4.869-2.314 6.332-1.543 1.461-3.695 2.395-6.454 2.801l-30.078 4.506c.892 2.678 2.719 4.688 5.479 6.027s5.926 2.01 9.499 2.01c3.329 0 6.475-.426 9.438-1.279 2.963-.852 5.377-1.846 7.245-2.982 1.298.813 2.394 1.947 3.287 3.41.894 1.461 1.341 3.004 1.341 4.627 0 3.652-1.704 6.373-5.114 8.16-2.6 1.381-5.522 2.313-8.769 2.799-3.248.487-6.294.731-9.134.731zm-3.41-47.859c-1.949 0-3.635.324-5.054.975-1.421.65-2.578 1.48-3.472 2.496s-1.563 2.152-2.009 3.408a14.003 14.003 0 0 0-.791 3.838l20.823-3.41c-.243-1.623-1.138-3.246-2.679-4.871-1.541-1.624-3.816-2.436-6.818-2.436z"/></g><g fill="#676767"><path d="M91.896 323.996c.838-.252 2.16-.504 3.967-.756a40.456 40.456 0 0 1 5.603-.377c1.846 0 3.503.125 4.974.377 1.467.252 2.707.756 3.715 1.512 1.006.756 1.781 1.785 2.328 3.084.545 1.301.819 3.002.819 5.1v27.07c0 3.443.838 5.898 2.519 7.367 1.678 1.469 4.111 2.201 7.302 2.201 1.931 0 3.505-.166 4.723-.502 1.215-.334 2.159-.672 2.833-1.008v-44.068c.837-.252 2.159-.504 3.965-.756a40.492 40.492 0 0 1 5.604-.377c1.845 0 3.504.125 4.974.377 1.468.252 2.707.756 3.715 1.512 1.007.756 1.782 1.785 2.329 3.084.545 1.301.818 3.002.818 5.1v38.277c0 4.199-1.763 7.346-5.288 9.443-2.939 1.848-6.443 3.254-10.515 4.217-4.072.965-8.498 1.449-13.283 1.449-4.532 0-8.709-.504-12.527-1.512-3.821-1.006-7.115-2.559-9.885-4.658-2.771-2.098-4.91-4.805-6.422-8.121-1.511-3.314-2.266-7.322-2.266-12.025v-36.01zM165.427 302.339c.838-.254 2.183-.523 4.029-.818a36.076 36.076 0 0 1 5.666-.441c1.845 0 3.504.127 4.974.377 1.467.252 2.707.756 3.714 1.512s1.763 1.783 2.267 3.084c.504 1.303.756 3.004.756 5.1v12.34c2.098-.838 4.092-1.426 5.98-1.764 1.889-.334 3.966-.502 6.232-.502 4.029 0 7.848.713 11.458 2.139a28.43 28.43 0 0 1 9.569 6.234c2.77 2.729 4.951 6.107 6.547 10.135 1.594 4.029 2.393 8.688 2.393 13.977 0 5.457-.818 10.221-2.455 14.291-1.637 4.072-3.926 7.451-6.862 10.137-2.938 2.686-6.528 4.721-10.766 6.105-4.239 1.385-8.92 2.078-14.038 2.078-5.541 0-10.243-.652-14.104-1.953-3.86-1.299-7.135-2.914-9.82-4.846-3.695-2.602-5.54-5.961-5.54-10.074v-67.111zm29.464 67.11c3.859 0 6.861-1.322 9.002-3.967s3.211-6.566 3.211-11.771c0-5.289-1.092-9.232-3.274-11.836-2.184-2.602-5.12-3.902-8.813-3.902-1.68 0-3.128.168-4.344.504-1.219.336-2.54.84-3.967 1.51v27.449c.923.588 2.035 1.07 3.337 1.447 1.301.378 2.916.566 4.848.566zM264.896 321.226c4.532 0 8.666.461 12.402 1.385 3.733.924 6.924 2.328 9.568 4.217s4.679 4.281 6.107 7.178c1.426 2.896 2.141 6.316 2.141 10.26v28.205c0 2.186-.61 3.967-1.826 5.352-1.218 1.385-2.666 2.582-4.344 3.588-5.458 3.275-13.139 4.912-23.042 4.912-4.45 0-8.457-.422-12.024-1.26-3.569-.838-6.633-2.098-9.191-3.777-2.562-1.678-4.533-3.818-5.918-6.422-1.385-2.6-2.078-5.623-2.078-9.064 0-5.793 1.72-10.24 5.162-13.348 3.441-3.104 8.771-5.035 15.991-5.791l16.495-1.764v-.881c0-2.434-1.07-4.176-3.211-5.225-2.141-1.051-5.226-1.574-9.255-1.574-3.19 0-6.296.336-9.317 1.008s-5.75 1.51-8.185 2.518c-1.092-.756-2.015-1.908-2.77-3.463a10.95 10.95 0 0 1-1.134-4.848c0-2.182.523-3.922 1.574-5.227 1.049-1.299 2.664-2.41 4.848-3.334 2.434-.924 5.309-1.594 8.625-2.016 3.316-.42 6.443-.629 9.382-.629zm1.007 49.482c1.426 0 3.001-.146 4.722-.441 1.721-.293 3-.693 3.84-1.195v-10.074l-9.065.756c-2.351.17-4.28.674-5.792 1.512-1.511.84-2.266 2.1-2.266 3.777 0 1.68.648 3.043 1.951 4.092 1.3 1.05 3.504 1.573 6.61 1.573z"/></g><path fill="#676767" d="M81.27 373.495c-.411 4.21-1.537 7.436-3.382 9.673-1.846 2.237-4.531 3.359-8.056 3.359-2.626 0-4.962-.696-7.011-2.083-2.05-1.388-4.264-3.739-6.641-7.054l-12.177-16.661v24.454c-.903.179-2.235.424-3.998.738a30.561 30.561 0 0 1-5.35.471c-1.805 0-3.425-.134-4.858-.403-1.436-.268-2.644-.806-3.628-1.613-.985-.805-1.743-1.902-2.275-3.29-.534-1.389-.799-3.202-.799-5.442v-77.795c.902-.268 2.232-.558 3.997-.873a30.544 30.544 0 0 1 5.35-.47c1.802 0 3.422.135 4.858.403 1.435.269 2.646.806 3.629 1.612.984.806 1.741 1.903 2.275 3.291.533 1.391.799 3.204.799 5.441v35.474l21.154-23.649c4.264 0 7.688 1.031 10.271 3.09 2.583 2.062 3.874 4.658 3.874 7.794 0 1.343-.206 2.576-.614 3.694-.412 1.121-1.046 2.264-1.907 3.425-.861 1.166-1.968 2.397-3.321 3.696s-2.933 2.801-4.735 4.501l-7.134 6.718 19.679 21.499z"/></svg>